<svg viewBox="0 0 15 15" xmlns="http://www.w3.org/2000/svg"><path d="M6.303 8.926 4.588 7.211a.553.553 0 0 0-.788.018.524.524 0 0 0-.157.385c0 .152.053.28.158.385l2.135 2.153a.504.504 0 0 0 .735 0l4.182-4.183a.553.553 0 0 0 .175-.403.553.553 0 0 0-.586-.55.566.566 0 0 0-.394.165L6.303 8.926Zm1.033 5.408c-.957 0-1.86-.184-2.713-.551a7.099 7.099 0 0 1-2.23-1.505 7.1 7.1 0 0 1-1.506-2.232 6.773 6.773 0 0 1-.551-2.712c0-.968.184-1.878.551-2.73a6.996 6.996 0 0 1 1.505-2.223A7.175 7.175 0 0 1 4.623.885 6.773 6.773 0 0 1 7.336.334c.968 0 1.878.184 2.73.551a7.069 7.069 0 0 1 2.222 1.496 7.07 7.07 0 0 1 1.497 2.223c.367.852.55 1.762.55 2.73 0 .957-.183 1.86-.55 2.713a7.175 7.175 0 0 1-1.497 2.23 6.994 6.994 0 0 1-2.222 1.506 6.816 6.816 0 0 1-2.73.551Z" fill="#22C55E"/></svg>
