<svg width="80" height="78" viewBox="0 0 80 78" fill="none" xmlns="http://www.w3.org/2000/svg">
<rect x="0.5" width="79" height="77.7049" rx="38.8525" fill="#675BFF"/>
<path d="M39.7622 34.4579C40.1023 34.4261 40.4456 34.4643 40.77 34.5712C41.9001 34.9427 42.8398 35.7431 43.3862 36.7997C43.9326 37.8563 44.0428 39.0857 43.6929 40.2225L42.5483 44.0243H48.0405C48.4919 44.0197 48.9396 44.1048 49.3579 44.2743C49.7762 44.4438 50.1572 44.6941 50.478 45.0116C50.7988 45.3291 51.0532 45.7074 51.2271 46.1239C51.4009 46.5405 51.4907 46.9879 51.4907 47.4393V51.8221C51.4926 54.0343 50.8367 56.1972 49.6069 58.036C49.0291 58.9064 48.2436 59.6196 47.3218 60.1112C46.4 60.6028 45.3703 60.8575 44.3257 60.8524H38.0063C36.2282 60.848 34.4751 60.4329 32.8843 59.6385L32.6372 59.5145C32.3963 59.9211 32.0544 60.2585 31.644 60.493C31.2336 60.7276 30.7691 60.8513 30.2964 60.8524H29.0112C28.2831 60.8524 27.5848 60.5635 27.0698 60.0487C26.5548 59.5337 26.2651 58.8346 26.2651 58.1063V46.7704C26.2744 46.0483 26.5677 45.3588 27.0815 44.8514C27.5955 44.3441 28.2891 44.0594 29.0112 44.0594H30.2964C30.7063 44.0625 31.1105 44.1572 31.479 44.3368C31.8476 44.5165 32.1713 44.7773 32.4263 45.0985L33.4302 44.1122C35.3694 42.1688 36.7439 39.7351 37.4077 37.0712L37.5845 36.3319C37.6667 36.0003 37.816 35.6889 38.0239 35.4178C38.2319 35.1467 38.4944 34.922 38.7935 34.7567C39.0925 34.5915 39.4221 34.4897 39.7622 34.4579ZM39.855 36.2382C39.7582 36.2382 39.6625 36.2581 39.5737 36.2968C39.4006 36.3967 39.2735 36.5609 39.2212 36.7538L39.0454 37.4764C38.2977 40.4477 36.758 43.1607 34.5913 45.327L32.9722 46.9462V57.7548L33.6763 58.1063C35.0215 58.7763 36.5035 59.1263 38.0063 59.1278H44.3257C45.0741 59.127 45.8112 58.9417 46.4712 58.5887C47.1313 58.2357 47.6947 57.7256 48.1108 57.1034C49.151 55.5392 49.7022 53.7006 49.6948 51.8221L49.5894 47.5448C49.5893 47.3276 49.5465 47.1126 49.4634 46.912C49.3802 46.7113 49.2586 46.5285 49.105 46.3749C48.9513 46.2212 48.7686 46.0996 48.5679 46.0165C48.3672 45.9334 48.1523 45.8905 47.9351 45.8905H41.2632C41.1261 45.8934 40.9903 45.8629 40.8677 45.8016C40.745 45.7403 40.6391 45.6494 40.5591 45.538C40.4772 45.4288 40.4214 45.3021 40.397 45.1678C40.3725 45.0334 40.3802 44.8947 40.4185 44.7635L41.897 39.8173C42.0128 39.4705 42.0595 39.1038 42.0337 38.7391C42.0079 38.3747 41.9099 38.019 41.7466 37.6923C41.5831 37.3653 41.3568 37.0733 41.0806 36.8339C40.8043 36.5944 40.4831 36.4121 40.1362 36.2968C40.0475 36.2581 39.9518 36.2382 39.855 36.2382ZM29.0112 45.785C28.7499 45.7851 28.4988 45.8883 28.314 46.0731C28.1292 46.258 28.0259 46.509 28.0259 46.7704V58.1063C28.0259 58.3676 28.1293 58.6188 28.314 58.8036C28.4988 58.9884 28.7499 59.0926 29.0112 59.0927H30.2261C30.4875 59.0926 30.7385 58.9885 30.9233 58.8036C31.1081 58.6187 31.2114 58.3677 31.2114 58.1063V46.7704C31.2121 46.5209 31.1184 46.2805 30.9487 46.0975C30.7788 45.9146 30.5454 45.8029 30.2964 45.785H29.0112ZM25.0503 24.0341C25.3751 24.0341 25.6949 24.1195 25.9761 24.2821C26.2572 24.4447 26.4908 24.6784 26.6528 24.9598L27.8677 27.4071L30.5601 27.7938C30.8948 27.833 31.2116 27.9679 31.4722 28.1815C31.7328 28.3954 31.9269 28.6801 32.0308 29.0009C32.1345 29.3215 32.144 29.6652 32.0581 29.9911C31.9722 30.3171 31.7948 30.6118 31.5464 30.8397L29.5747 32.7587L30.0503 35.4344C30.1001 35.6918 30.0917 35.9571 30.0259 36.2108C29.96 36.4646 29.8381 36.7005 29.6694 36.9012C29.5007 37.102 29.289 37.2624 29.0503 37.371C28.8116 37.4795 28.5517 37.534 28.2896 37.5292C28.0007 37.5277 27.7166 37.4545 27.4624 37.3173L25.0503 36.0497L22.6392 37.3173C22.3459 37.4777 22.0128 37.552 21.6792 37.5302C21.3457 37.5083 21.0252 37.3914 20.7554 37.1942C20.4792 37.0008 20.2641 36.7318 20.1362 36.4198C20.0084 36.108 19.9728 35.7659 20.0337 35.4344L20.5093 32.7587L18.5552 30.8397C18.3068 30.6118 18.1294 30.3171 18.0435 29.9911C17.9576 29.6652 17.967 29.3215 18.0708 29.0009C18.1746 28.6801 18.3688 28.3954 18.6294 28.1815C18.8899 27.968 19.206 27.833 19.5405 27.7938L22.2339 27.4071L23.4487 24.9598C23.6108 24.6784 23.8443 24.4447 24.1255 24.2821C24.4066 24.1196 24.7256 24.0341 25.0503 24.0341ZM54.9761 24.0341C55.3008 24.0341 55.6197 24.1196 55.9009 24.2821C56.182 24.4446 56.4156 24.6785 56.5776 24.9598L57.7925 27.4071L60.4858 27.7938C60.8169 27.8385 61.1287 27.9772 61.3843 28.1923C61.6396 28.4072 61.8287 28.6904 61.9292 29.0087C62.0324 29.3273 62.0426 29.6689 61.9585 29.993C61.8743 30.3173 61.6988 30.6114 61.4536 30.8397L59.4995 32.7587L59.9751 35.4344C60.0249 35.6918 60.0165 35.9571 59.9507 36.2108C59.8848 36.4646 59.7629 36.7005 59.5942 36.9012C59.4256 37.1018 59.2146 37.2624 58.9761 37.371C58.7375 37.4795 58.4774 37.5339 58.2153 37.5292C57.9264 37.5277 57.6415 37.4545 57.3872 37.3173L54.9761 36.0497L52.564 37.3173C52.2709 37.4776 51.9384 37.5519 51.605 37.5302C51.2715 37.5083 50.951 37.3914 50.6812 37.1942C50.4049 37.0008 50.19 36.7319 50.062 36.4198C49.9341 36.1079 49.8986 35.766 49.9595 35.4344L50.4341 32.7587L48.48 30.8397C48.2317 30.6118 48.0541 30.317 47.9683 29.9911C47.8824 29.6652 47.8919 29.3215 47.9956 29.0009C48.0994 28.6801 48.2936 28.3954 48.5542 28.1815C48.8148 27.9678 49.1315 27.833 49.4663 27.7938L52.1597 27.4071L53.3745 24.9598C53.5366 24.6785 53.7702 24.4446 54.0513 24.2821C54.3324 24.1197 54.6514 24.0341 54.9761 24.0341ZM23.6069 28.6044C23.5479 28.7324 23.4571 28.8435 23.3433 28.9266C23.2293 29.0097 23.0956 29.0619 22.9556 29.079L19.7876 29.537L22.0581 31.8075C22.1764 31.9011 22.2702 32.0223 22.3315 32.16C22.3928 32.2979 22.4204 32.449 22.4106 32.5995L21.7769 35.7333L24.646 34.2899C24.7692 34.2199 24.9086 34.1837 25.0503 34.1844C25.1922 34.1836 25.3322 34.2199 25.4556 34.2899L28.2896 35.7684L27.7788 32.5995C27.7584 32.4562 27.7721 32.3101 27.8179 32.1727C27.8637 32.0352 27.9409 31.9099 28.0435 31.8075L30.314 29.5897L27.146 29.079C27.006 29.0619 26.8722 29.0097 26.7583 28.9266C26.6444 28.8435 26.5537 28.7324 26.4946 28.6044L25.0689 25.7343L23.6069 28.6044ZM53.5327 28.6044C53.4737 28.7324 53.3829 28.8435 53.269 28.9266C53.1551 29.0098 53.0214 29.0619 52.8814 29.079L49.7124 29.537L51.9839 31.8075C52.1021 31.9011 52.196 32.0222 52.2573 32.16C52.3186 32.2979 52.3452 32.449 52.3355 32.5995L51.7017 35.7333L54.5708 34.2899C54.6945 34.2205 54.8343 34.1844 54.9761 34.1844C55.1177 34.1845 55.2568 34.2207 55.3804 34.2899L58.2153 35.7684L57.7046 32.5995C57.6841 32.4562 57.6969 32.3101 57.7427 32.1727C57.7885 32.0352 57.8657 31.9099 57.9683 31.8075L60.2397 29.5897L57.0708 29.079C56.9307 29.0619 56.7971 29.0098 56.6831 28.9266C56.5692 28.8435 56.4785 28.7324 56.4194 28.6044L54.9937 25.7343L53.5327 28.6044ZM40.0132 16.8524C40.3782 16.8524 40.7366 16.9541 41.0474 17.1454C41.358 17.3367 41.6096 17.6106 41.7739 17.9364L43.2349 20.9471L46.5269 21.4218C46.889 21.4756 47.2286 21.6299 47.5083 21.8661C47.7881 22.1024 47.9971 22.4116 48.1108 22.7596C48.2244 23.1081 48.2363 23.4816 48.146 23.8368C48.0556 24.192 47.8664 24.5146 47.6001 24.7665L45.2944 27.0546L45.7876 30.329C45.8518 30.6867 45.8124 31.0559 45.6753 31.3925C45.5382 31.7288 45.308 32.0194 45.0122 32.2303C44.7189 32.4483 44.3697 32.5793 44.0054 32.6073C43.641 32.6353 43.2758 32.5592 42.9526 32.3885L40.0132 30.8397L37.0034 32.3885C36.7199 32.534 36.406 32.612 36.0874 32.6171C35.6749 32.612 35.2746 32.4769 34.9438 32.2303C34.645 32.0181 34.4132 31.7245 34.2759 31.3846C34.1386 31.0446 34.1017 30.6718 34.1694 30.3114L34.7329 27.0546L32.4263 24.7665C32.1535 24.5117 31.9602 24.1833 31.8696 23.8212C31.7791 23.4589 31.7947 23.0778 31.9155 22.7245C32.0293 22.3764 32.2383 22.0672 32.5181 21.8309C32.7979 21.5946 33.1382 21.4404 33.5005 21.3866L36.7925 20.911L38.2534 17.9364C38.4178 17.6107 38.6693 17.3367 38.98 17.1454C39.2907 16.9542 39.6484 16.8525 40.0132 16.8524ZM40.189 18.5985C40.152 18.5986 40.1156 18.6088 40.0845 18.6288C40.0534 18.6488 40.0286 18.6773 40.0132 18.7108L38.2534 22.1083C38.1776 22.2601 38.0578 22.386 37.9106 22.4706C37.7635 22.5551 37.5946 22.5948 37.4253 22.5839L33.6763 23.1298H33.7466C33.7618 23.1728 33.7906 23.2099 33.8286 23.2352C33.8666 23.2606 33.9119 23.2729 33.9575 23.2704C33.9406 23.2998 33.9321 23.3332 33.9321 23.3671C33.9321 23.4009 33.9406 23.4344 33.9575 23.4637L36.6685 26.1044C36.771 26.2068 36.8482 26.3321 36.894 26.4696C36.9398 26.607 36.9536 26.753 36.9331 26.8964L36.2817 30.6112C36.2699 30.6486 36.2724 30.6888 36.2886 30.7245C36.3048 30.7602 36.3336 30.789 36.3696 30.8046C36.3973 30.8259 36.4313 30.8378 36.4663 30.8378C36.5013 30.8378 36.5353 30.8259 36.563 30.8046L39.9253 29.0438C40.0489 28.9745 40.1888 28.9384 40.3306 28.9384C40.4721 28.9384 40.6114 28.9746 40.7349 29.0438L44.0796 30.8046C44.11 30.8274 44.1471 30.8397 44.1851 30.8397C44.223 30.8397 44.2601 30.8273 44.2905 30.8046C44.3266 30.789 44.3563 30.7603 44.3726 30.7245C44.3887 30.6889 44.3912 30.6484 44.3794 30.6112L43.728 26.8964C43.7075 26.753 43.7204 26.607 43.7661 26.4696C43.8119 26.3321 43.8892 26.2068 43.9917 26.1044L46.7026 23.4637C46.7196 23.4344 46.728 23.401 46.728 23.3671C46.728 23.3331 46.7196 23.2998 46.7026 23.2704C46.691 23.235 46.6699 23.2033 46.6421 23.1786C46.6144 23.154 46.5807 23.1372 46.5444 23.1298L42.7944 22.5839C42.6523 22.5664 42.5166 22.5135 42.3999 22.4305C42.2832 22.3476 42.1887 22.2367 42.1255 22.1083L40.3657 18.7108C40.3503 18.6773 40.3255 18.6488 40.2944 18.6288C40.2632 18.6088 40.226 18.5985 40.189 18.5985Z" fill="white"/>
</svg>
