<svg width="80" height="78" viewBox="0 0 80 78" fill="none" xmlns="http://www.w3.org/2000/svg">
<rect x="0.5" width="79" height="77.7049" rx="38.8525" fill="#FF5959"/>
<path d="M39.5293 16.9807C39.8196 16.8093 40.1803 16.8093 40.4707 16.9807C45.9373 20.2083 52.0264 22.7917 58.0801 24.4505C58.4823 24.5605 58.7617 24.9261 58.7617 25.343V34.8001C58.7617 44.5387 54.2689 50.9853 50.5 54.678C46.4426 58.6537 41.7161 60.8526 40 60.8528C38.284 60.8528 33.5575 58.6537 29.5 54.678C25.731 50.9852 21.2383 44.5387 21.2383 34.8001V25.343C21.2383 24.926 21.5168 24.5605 21.9189 24.4505C28.1446 22.7447 33.9049 20.3011 39.5293 16.9807ZM40 18.8509C34.5871 21.9964 29.0424 24.3548 23.0889 26.0452V34.8001C23.0889 43.8958 27.2795 49.9111 30.7949 53.3557C34.7851 57.2654 39.0519 59.0012 40 59.0012C40.9485 59.001 45.2143 57.265 49.2041 53.3557C52.7196 49.9112 56.9101 43.8958 56.9102 34.8001V26.0452C51.0989 24.389 45.2777 21.9129 40 18.8509ZM42.2822 54.1009C42.7229 53.8432 43.2894 53.9913 43.5479 54.4319C43.8061 54.8729 43.6586 55.4401 43.2178 55.6985L43.1562 55.7346C43.0104 55.8193 42.8506 55.8596 42.6934 55.8596C42.3738 55.8596 42.0632 55.6932 41.8916 55.3968C41.6357 54.9545 41.7863 54.3882 42.2285 54.1321L42.2822 54.1009ZM49.7461 46.9651C50.026 46.5375 50.5997 46.4171 51.0273 46.6966C51.4552 46.9761 51.5755 47.5499 51.2959 47.9778C50.4694 49.2432 49.5007 50.4535 48.417 51.5745C47.5283 52.4938 46.5647 53.3505 45.5537 54.1214C45.3861 54.2492 45.1889 54.3118 44.9932 54.3118C44.7144 54.3118 44.4391 54.1854 44.2568 53.9466C43.9471 53.54 44.0253 52.9595 44.4316 52.6497C45.3689 51.9352 46.2617 51.14 47.0859 50.2874C48.0883 49.2504 48.9834 48.1325 49.7461 46.9651ZM48.4365 30.138C49.2406 30.138 49.997 30.4514 50.5654 31.0198C51.7384 32.1929 51.7385 34.102 50.5654 35.2757L39.1562 46.6848C38.5879 47.2531 37.8321 47.5656 37.0283 47.5657C36.2244 47.5657 35.4678 47.2531 34.8994 46.6848L29.4346 41.22C28.2613 40.0465 28.2613 38.1367 29.4346 36.9632C30.003 36.395 30.7588 36.0824 31.5625 36.0823C32.3662 36.0823 33.1222 36.3949 33.6904 36.9632L37.0283 40.3001L46.3086 31.0198C46.877 30.4516 47.6327 30.1381 48.4365 30.138ZM48.4365 31.9895C48.1271 31.9896 47.8358 32.1098 47.6172 32.3284L37.6826 42.2639C37.5092 42.4374 37.2737 42.5343 37.0283 42.5344C36.7828 42.5344 36.5467 42.4374 36.373 42.2639L32.3818 38.2727C32.1631 38.054 31.8721 37.9329 31.5625 37.9329C31.253 37.9329 30.9619 38.0541 30.7432 38.2727C30.2917 38.7243 30.2914 39.4597 30.7432 39.9114L36.209 45.3762C36.4277 45.5947 36.719 45.7151 37.0283 45.7151C37.3377 45.715 37.629 45.5949 37.8477 45.3762L49.2559 33.9671C49.7076 33.5154 49.7082 32.78 49.2568 32.3284C49.038 32.1097 48.7462 31.9895 48.4365 31.9895ZM30.5957 25.4202C31.0714 25.2329 31.6085 25.4662 31.7959 25.9417C31.9833 26.4173 31.7491 26.9546 31.2734 27.1419C29.7904 27.7263 28.2731 28.2705 26.7539 28.762V31.6594C26.7539 32.1706 26.3392 32.5852 25.8281 32.5852C25.3171 32.5852 24.9023 32.1706 24.9023 31.6594V28.0852C24.9024 27.6811 25.1652 27.3237 25.5508 27.2024C27.2443 26.6712 28.9423 26.0717 30.5957 25.4202ZM33.1943 24.3391C33.6621 24.1341 34.2106 24.3455 34.416 24.8137C34.6212 25.2818 34.4106 25.8272 33.9424 26.0325L33.9248 26.0393C33.8039 26.092 33.6778 26.1175 33.5537 26.1175C33.1967 26.1173 32.8559 25.9104 32.7041 25.5628C32.4996 25.0945 32.7112 24.5496 33.1797 24.345L33.1943 24.3391Z" fill="white"/>
</svg>
