<svg width="80" height="78" viewBox="0 0 80 78" fill="none" xmlns="http://www.w3.org/2000/svg">
<rect x="0.5" width="79" height="77.7049" rx="38.8525" fill="#008744"/>
<path d="M39.9995 16.8524C45.2786 16.8524 50.244 18.9096 53.98 22.6464C57.5442 26.2107 59.5745 30.8975 59.7505 35.91C61.3768 36.6331 62.516 38.262 62.5161 40.1532V45.368C62.5161 47.2529 61.3851 48.876 59.7681 49.6034V52.1327C59.7681 55.7372 56.8362 58.6696 53.231 58.6698H49.9868C49.5309 59.9551 48.3077 60.8524 46.9204 60.8524H43.5747C42.7044 60.8524 41.8854 60.5122 41.27 59.8954C40.6547 59.2829 40.3149 58.4643 40.3149 57.5927C40.315 56.3239 41.0588 55.1619 42.2104 54.6327C42.6327 54.4359 43.0943 54.3339 43.5747 54.3339H46.9204C47.7921 54.3339 48.6112 54.6741 49.2251 55.2909C49.5753 55.6397 49.8245 56.0605 49.9839 56.5155H53.231C55.6478 56.5153 57.6147 54.5495 57.6147 52.1327V49.9862C56.0796 49.8534 54.8667 48.5766 54.8667 47.0077V38.5145C54.8669 36.9602 56.0582 35.6923 57.5737 35.5399C57.3045 31.2124 55.5157 27.2272 52.4585 24.1698C49.1289 20.8402 44.7042 19.0057 39.9995 19.0057C30.65 19.0059 22.9826 26.3287 22.4224 35.5389C23.9395 35.6897 25.1331 36.9587 25.1333 38.5145V47.0087C25.1333 48.6659 23.7856 50.0135 22.1284 50.0135C19.5671 50.0135 17.4839 47.9296 17.4839 45.369V40.1552C17.4839 38.2624 18.6225 36.6331 20.2495 35.91C20.6253 25.3385 29.3375 16.8526 39.9995 16.8524ZM43.5737 56.4901C43.4108 56.4901 43.2564 56.5237 43.1157 56.5897C42.7208 56.7714 42.4683 57.1645 42.4683 57.5946C42.4684 57.8887 42.5835 58.1655 42.7915 58.3729C43.0026 58.584 43.2793 58.6991 43.5737 58.6991H46.9194C47.4386 58.6991 47.8944 58.331 48.0015 57.8241C48.0165 57.7524 48.0246 57.6734 48.0239 57.5946C48.0239 57.3002 47.9089 57.0228 47.7007 56.8153C47.4903 56.6042 47.2138 56.4901 46.9194 56.4901H43.5737ZM46.9741 27.3124C48.1912 27.3124 49.3366 27.7881 50.1997 28.6512C51.0627 29.5143 51.5386 30.6605 51.5386 31.8768V41.1757C51.5386 43.6917 49.4909 45.7401 46.9741 45.7401H40.9312L36.9224 49.7274C36.5037 50.1604 35.9318 50.3925 35.3452 50.3925C35.0639 50.3924 34.7798 50.3382 34.5063 50.2284C33.659 49.8844 33.1108 49.0684 33.1108 48.1493V45.7401H33.0259C30.5091 45.7401 28.4614 43.6924 28.4614 41.1757V31.8768C28.4614 29.3601 30.5091 27.3124 33.0259 27.3124H46.9741ZM33.0259 29.4667C31.6969 29.4668 30.6167 30.5478 30.6167 31.8768V41.1757C30.6167 42.504 31.6969 43.5857 33.0259 43.5858H34.189C34.7841 43.586 35.2661 44.0685 35.2661 44.663V48.1493C35.2661 48.1779 35.2658 48.2102 35.3149 48.2303C35.3559 48.2483 35.3708 48.2338 35.3901 48.2137L39.728 43.8983C39.9297 43.6981 40.2029 43.5859 40.4878 43.5858H46.9751C48.3034 43.5858 49.3853 42.5047 49.3853 41.1757V31.8768C49.3853 31.2356 49.1339 30.6304 48.6772 30.1737C48.2206 29.7179 47.6169 29.4667 46.9751 29.4667H33.0259ZM22.1274 37.6639C20.7546 37.664 19.6372 38.7806 19.6372 40.1542V45.369C19.6374 46.7417 20.7547 47.8592 22.1274 47.8593C22.597 47.8593 22.978 47.4766 22.978 47.0077V38.5145C22.9779 38.0458 22.5969 37.6639 22.1274 37.6639ZM57.8716 37.6639C57.4021 37.6639 57.0212 38.0458 57.021 38.5145V47.0077C57.021 47.4773 57.4027 47.8593 57.8716 47.8593C59.2443 47.8592 60.3616 46.7417 60.3618 45.369V40.1542C60.3618 38.7813 59.2444 37.664 57.8716 37.6639ZM34.7671 35.1093C35.6445 35.1093 36.3579 35.8228 36.3579 36.6981C36.3579 37.5734 35.6438 38.287 34.7671 38.287C33.8919 38.2868 33.1782 37.5733 33.1782 36.6981C33.1783 35.8229 33.8912 35.1094 34.7671 35.1093ZM39.9995 35.1093C40.8768 35.1095 41.5893 35.823 41.5894 36.6981C41.5894 37.5733 40.8768 38.2868 39.9995 38.287C39.1242 38.287 38.4097 37.5734 38.4097 36.6981C38.4097 35.8228 39.1235 35.1093 39.9995 35.1093ZM45.231 35.1093C46.1076 35.1093 46.8218 35.8229 46.8218 36.6981C46.8218 37.5734 46.1077 38.2869 45.231 38.287C44.3557 38.287 43.6421 37.5734 43.6421 36.6981C43.6421 35.8228 44.355 35.1093 45.231 35.1093Z" fill="white"/>
</svg>
