<svg width="72" height="72" viewBox="0 0 72 72" fill="none" xmlns="http://www.w3.org/2000/svg"><path fill-rule="evenodd" clip-rule="evenodd" d="M35.975.496C37.777.522 39 2.72 40.781 2.993c1.781.273 3.564-1.46 5.294-.94 1.73.521 2.28 2.958 3.916 3.714 1.636.757 3.854-.4 5.375.572 1.522.972 1.344 3.45 2.709 4.627 1.364 1.177 3.838.684 5.024 2.034 1.186 1.35.312 3.663 1.289 5.165.976 1.502 3.505 1.713 4.26 3.326.757 1.613-.751 3.586-.237 5.288.513 1.703 2.888 2.604 3.16 4.355.272 1.75-1.755 3.21-1.746 4.978.008 1.767 2.048 3.284 1.793 5.027-.244 1.744-2.621 2.579-3.119 4.267-.497 1.688 1.03 3.694.289 5.296-.74 1.592-3.268 1.732-4.23 3.207-.963 1.475-.067 3.813-1.24 5.13-1.174 1.316-3.652.755-5.006 1.893-1.353 1.139-1.163 3.622-2.665 4.552-1.512.93-3.74-.29-5.37.421s-2.156 3.133-3.881 3.605c-1.726.472-3.525-1.31-5.304-1.088-1.78.224-2.98 2.388-4.782 2.362-1.802-.025-3.024-2.223-4.806-2.496-1.781-.273-3.564 1.46-5.294.94-1.73-.521-2.28-2.958-3.916-3.715-1.636-.756-3.854.401-5.375-.57-1.522-.973-1.344-3.451-2.709-4.628-1.364-1.176-3.838-.684-5.024-2.034-1.186-1.35-.312-3.663-1.289-5.165-.976-1.502-3.505-1.713-4.26-3.326-.757-1.613.751-3.586.237-5.288-.513-1.703-2.888-2.604-3.16-4.355-.26-1.76 1.755-3.22 1.746-4.978-.008-1.767-2.048-3.284-1.793-5.027.244-1.744 2.621-2.579 3.119-4.267.497-1.688-1.03-3.694-.289-5.296.74-1.591 3.268-1.732 4.23-3.207.963-1.475.067-3.813 1.24-5.13 1.174-1.317 3.652-.755 5.006-1.893 1.353-1.14 1.163-3.622 2.665-4.552 1.512-.93 3.74.29 5.37-.421s2.156-3.133 3.881-3.605c1.726-.472 3.525 1.31 5.304 1.087 1.78-.223 2.98-2.387 4.782-2.362Zm.022 4.6c17.194.24 31.198 14.111 31.278 30.98.08 16.87-13.793 30.35-30.987 30.109-17.194-.24-31.198-14.111-31.278-30.98-.08-16.87 13.793-30.35 30.987-30.109Z" fill="#3B82F6"/><path d="M36.006 6.452a30.52 30.52 0 0 1 21.08 8.842c5.409 5.357 8.773 12.702 8.811 20.764.039 8.063-3.256 15.313-8.615 20.52-5.358 5.207-12.78 8.369-20.998 8.254a30.53 30.53 0 0 1-21.08-8.853c-5.41-5.357-8.773-12.701-8.811-20.754-.039-8.052 3.256-15.313 8.614-20.52 5.359-5.206 12.781-8.368 21-8.253Zm20.797 9.107a30.12 30.12 0 0 0-20.795-8.725c-8.102-.113-15.43 3.009-20.715 8.144-5.285 5.146-8.538 12.294-8.5 20.253.038 7.96 3.36 15.2 8.694 20.483a30.12 30.12 0 0 0 20.795 8.725c8.102.114 15.43-3.009 20.715-8.144s8.538-12.294 8.5-20.242c-.038-7.95-3.349-15.2-8.694-20.494Z" fill="#3B82F6"/><path d="M36.054 17.004a19.512 19.512 0 0 1 13.459 5.646c3.45 3.418 5.6 8.109 5.625 13.257.025 5.147-2.081 9.769-5.5 13.1-3.419 3.322-8.16 5.344-13.407 5.27a19.513 19.513 0 0 1-13.459-5.645c-3.45-3.418-5.6-8.11-5.625-13.257-.024-5.148 2.082-9.77 5.5-13.101 3.43-3.322 8.16-5.343 13.407-5.27Zm.01 2.181a17.206 17.206 0 0 1 11.886 4.983c3.049 3.02 4.944 7.16 4.965 11.708a15.941 15.941 0 0 1-4.854 11.57c-3.02 2.934-7.205 4.715-11.84 4.65a17.206 17.206 0 0 1-11.886-4.982c-3.048-3.02-4.943-7.16-4.965-11.708a15.941 15.941 0 0 1 4.854-11.57c3.031-2.934 7.215-4.716 11.84-4.65Zm11.603 5.248a16.805 16.805 0 0 0-11.6-4.865c-4.52-.064-8.61 1.677-11.557 4.54a15.571 15.571 0 0 0-4.74 11.293c.021 4.435 1.874 8.481 4.848 11.427a16.805 16.805 0 0 0 11.601 4.865c4.52.064 8.61-1.678 11.556-4.54a15.571 15.571 0 0 0 4.74-11.293c-.01-4.435-1.863-8.47-4.848-11.427Zm.975-.938a18.213 18.213 0 0 0-12.582-5.282c-4.91-.068-9.336 1.823-12.534 4.931-3.198 3.108-5.17 7.431-5.146 12.248.023 4.817 2.035 9.197 5.263 12.394a18.213 18.213 0 0 0 12.582 5.282c4.91.069 9.336-1.823 12.535-4.93 3.198-3.108 5.169-7.432 5.146-12.249-.023-4.816-2.035-9.196-5.264-12.394Z" fill="#3B82F6"/><path d="m20.05 21.69-.387.595-1.797-1.152-1.892-1.287 2.768 3.852-.293.451-4.67-.923 1.954 1.174 1.796 1.152-.387.594-4.607-2.958.335-.512.167-.256 4.724.955-2.81-3.874.502-.768 4.597 2.958Zm2.502-5.37c.36.408.594.815.723 1.22.128.405.13.797.026 1.168-.114.37-.334.688-.659.973a2.006 2.006 0 0 1-1.072.48c-.39.047-.79-.01-1.192-.192a3.262 3.262 0 0 1-1.13-.873l-.234-.262c-.35-.398-.594-.814-.712-1.22a1.957 1.957 0 0 1-.016-1.178c.114-.37.324-.688.649-.962.336-.275.693-.445 1.083-.492.39-.046.78.022 1.18.203.402.181.772.476 1.121.884l.233.251Zm-.778.186a3.288 3.288 0 0 0-.857-.715 1.57 1.57 0 0 0-.833-.198c-.274.027-.516.138-.757.33-.22.194-.367.409-.429.667-.062.257-.04.536.067.838.107.3.298.614.584.938l.233.272c.286.324.572.556.857.704.296.15.57.215.844.188a1.33 1.33 0 0 0 .746-.32c.357-.295.513-.655.48-1.079-.034-.424-.268-.882-.702-1.364l-.233-.261Zm6.552-.177-4.248-2.726 1.756 3.797-.662.28-2.268-4.91.663-.28 4.258 2.736-1.756-3.807.652-.28 2.267 4.91-.662.28Zm5.142-1.892.13.56-2.81.601-.57.116-1.257-5.237.706-.155 2.63-.563.14.56-2.63.563.408 1.69 2.294-.484.129.56-2.294.484.44 1.867 2.684-.562Zm4.255-4.705.822.032-1.944 3.28-.043 2.005-.727-.031.043-2.005-1.807-3.426.832.033 1.361 2.747 1.463-2.635Zm6.825 4.105c.264.17.434.4.52.67.085.27.076.558-.028.846a1.47 1.47 0 0 1-.481.717 1.41 1.41 0 0 1-.768.29c-.295.026-.622-.03-.96-.149l-1.55-.538-.264-.087 1.724-5.05 1.7.592c.537.183.918.437 1.14.76.213.323.246.706.09 1.17-.083.226-.219.41-.418.552-.2.141-.431.21-.705.227Zm-1.297-2.509-.551 1.605 1.023.355c.19.065.38.099.549.08a.9.9 0 0 0 .441-.159.791.791 0 0 0 .272-.4c.094-.277.082-.504-.035-.692-.116-.188-.349-.336-.686-.454l-1.013-.335Zm-.232 4.348c.316.108.6.112.832.012.231-.1.399-.294.492-.572.104-.288.092-.546-.014-.755-.106-.218-.328-.376-.666-.495l-1.16-.398-.624 1.82 1.14.388Zm5.835 2.036-1.923-1.237-1.197.893-.634-.401 4.683-3.335.401.264.138.084-1.164 5.586-.634-.402.33-1.453Zm.134-.598.588-2.586-2.141 1.582 1.553 1.004Zm4.794 4.646a2.434 2.434 0 0 1-.883.411 1.719 1.719 0 0 1-.938-.065c-.316-.107-.623-.318-.919-.622a1.988 1.988 0 0 1-.553-1.01 1.943 1.943 0 0 1 .121-1.136c.157-.38.408-.738.775-1.074l.398-.367c.368-.336.746-.568 1.145-.697.4-.129.79-.134 1.17-.035.38.098.728.31 1.035.634.275.294.466.586.552.897.086.311.098.611.005.91-.083.298-.25.585-.492.861l-.508-.524c.252-.317.387-.615.407-.894.01-.278-.119-.57-.394-.852a1.405 1.405 0 0 0-.729-.424 1.47 1.47 0 0 0-.832.092c-.284.11-.567.302-.85.556l-.399.377a2.71 2.71 0 0 0-.607.777 1.485 1.485 0 0 0-.175.804c.022.269.139.508.361.728.201.21.402.357.603.422.19.065.39.078.58.029.189-.05.399-.15.63-.301l.497.503Zm2.221 1.798-.938-.199-1.555.96-.392-.605 4.58-2.83.392.605-2.259 1.395 3.575.619.477.73-3.184-.54-1.3 3.505-.477-.73 1.081-2.91ZM17.26 50.642l.504-.386 1.441 1.798-1.574 1.208a4.516 4.516 0 0 1-1.182-.472 3.216 3.216 0 0 1-.889-.777c-.329-.418-.552-.866-.638-1.342a2.157 2.157 0 0 1 .162-1.362 2.93 2.93 0 0 1 .932-1.124 3.46 3.46 0 0 1 1.367-.632c.494-.097.958-.06 1.39.133.434.192.825.497 1.164.926.244.303.414.626.52.948.097.321.12.621.047.9-.062.278-.219.565-.438.851l-.571-.4c.167-.226.272-.441.323-.627a1.18 1.18 0 0 0-.024-.63 1.869 1.869 0 0 0-.35-.667 2.37 2.37 0 0 0-.646-.577 1.61 1.61 0 0 0-.675-.216 2.109 2.109 0 0 0-.632.053 2.93 2.93 0 0 0-.988.492c-.378.295-.65.601-.796.92a1.501 1.501 0 0 0-.111 1c.075.343.224.655.447.937.19.24.434.44.708.599.286.16.518.255.729.29l.797-.61-1.017-1.233Zm7.322 2.334.572.453-1.938 2.391c-.335.42-.65.715-.955.876-.294.171-.63.229-1.01.182-.38-.047-.77-.228-1.193-.554-.402-.316-.677-.64-.826-.973a1.47 1.47 0 0 1-.079-1.014c.093-.34.323-.73.68-1.169l1.937-2.401.57.452-1.937 2.392c-.293.357-.47.654-.543.88a.927.927 0 0 0 .034.673c.096.229.266.428.509.627.412.327.782.466 1.108.43.327-.048.694-.332 1.123-.853l1.948-2.392Zm-1.597 5.332 4.1-3.994.73.33-.163 5.766-.75-.342.087-1.735-2.101-.939-1.206 1.224-.697-.31Zm2.333-1.342 1.7.768.087-1.58c.03-.475.059-.868.1-1.177-.21.286-.44.552-.702.807l-1.185 1.182Zm3.642 3.855.987-5.237 2.372.477c.475.1.834.219 1.066.356.232.148.402.347.498.617.107.27.129.55.078.839-.072.37-.25.658-.544.87-.294.203-.704.29-1.231.262.169.127.296.242.38.347.17.23.33.5.457.812l.661 1.611-.886-.177-.5-1.237c-.15-.354-.267-.634-.373-.822-.106-.198-.202-.334-.297-.418a1.074 1.074 0 0 0-.296-.2 2.135 2.135 0 0 0-.39-.099l-.823-.166-.442 2.33-.717-.165Zm1.262-2.784 1.518.3c.327.067.58.081.78.053a.812.812 0 0 0 .703-.672.753.753 0 0 0-.162-.664c-.148-.199-.423-.337-.823-.415l-1.698-.334-.318 1.732Zm4.316 3.833 1.87-5.39.79-.02 2.438 5.295-.821.02-.693-1.612-2.296.05-.519 1.637-.769.02Zm1.475-2.232 1.854-.036-.629-1.467c-.191-.447-.33-.82-.437-1.112-.062.35-.144.69-.258 1.04l-.53 1.575Zm4.95 1.95-1.478-5.168.715-.186 3.914 3.352-1.157-4.058.663-.177 1.478 5.168-.715.187-3.914-3.352 1.157 4.057-.663.177Zm7.205-2.36-2.138-4.267-1.608.753-.287-.562 3.868-1.817.287.562-1.608.753 2.138 4.268-.652.31Zm3.467-1.966-3.391-4.244 3.075-2.344.403.501-2.52 1.908 1.04 1.307 2.35-1.797.404.502-2.352 1.797 1.155 1.442 2.614-1.99.403.502-3.18 2.416Zm4.386-3.7-4.335-3.317 2.377-3.026.508.39-1.948 2.473 1.332 1.021 1.822-2.31.508.39-1.812 2.3 1.48 1.126 2.021-2.576.508.39-2.46 3.138Z" fill="#1F2937"/><path fill-rule="evenodd" clip-rule="evenodd" d="m12.16 32.234.908 2.503 2.697.11-2.131 1.573.781 2.543-2.23-1.53L9.98 38.9l.746-2.522-2.136-1.632 2.687-.035.883-2.478Zm47.934.67L61 35.407l2.698.11-2.131 1.573.78 2.543-2.23-1.53-2.205 1.468.747-2.522-2.136-1.632 2.686-.035.884-2.478Z" fill="#3B82F6"/><path d="m29.726 38.532 3.313.046-.06-12.561-2.87-.04-4.467 4.269 1.897 1.966 2.147-2.098.04 8.418Zm11.044.155 3.332.046-.011-2.297 1.56.021-.013-2.843-1.56-.022-.036-7.42-4.604-.065-4.837 7.672.012 2.524 6.145.086.011 2.297Zm-.047-9.737.022 4.595-2.928-.04 2.906-4.555ZM26.568 45.835l2.244.032c1.67.023 2.871-.952 2.864-2.568-.008-1.617-1.219-2.617-2.896-2.64l-2.237-.032.025 5.208Zm1.368-1.152-.013-2.865.87.012c.975.013 1.473.645 1.477 1.45.003.772-.537 1.428-1.471 1.415l-.863-.012Zm7.86 1.281 1.494.021-2.038-5.236-1.725-.024-1.98 5.18 1.494.02.267-.784 2.213.03.275.793Zm-1.4-4.056.76 2.127-1.494-.021.733-2.106Zm4.194 4.095 1.375.02-.01-2.1 1.998-3.08-1.558-.022-1.133 1.905-1.167-1.938-1.55-.021 2.036 3.136.01 2.1Zm3.238-.688c.538.507 1.29.846 2.368.86 1.43.02 2.218-.663 2.212-1.71-.005-1.179-1.22-1.446-2.1-1.638-.591-.117-.92-.215-.92-.488-.002-.227.173-.404.629-.398a2.554 2.554 0 0 1 1.504.56l.746-.95c-.57-.484-1.314-.745-2.168-.757-1.366-.019-2.121.728-2.117 1.603.006 1.234 1.237 1.47 2.116 1.654.568.124.912.246.913.543.002.25-.285.441-.756.435a2.482 2.482 0 0 1-1.705-.711l-.722.997Z" fill="#1F2937"/></svg>
