<svg xmlns="http://www.w3.org/2000/svg" width="566" height="558" viewBox="0 0 566 558" fill="none"><g opacity="0.884"><path d="M420.904 148.465C418.556 159.391 427.042 169.968 438.518 169.758C445.219 169.861 449.507 176.504 446.841 182.654C442.314 192.773 448.067 205.113 458.99 207.474C465.416 208.862 468.395 216.904 464.329 221.742C457.369 230.663 460.667 243.482 470.647 248.665C476.797 251.339 477.71 259.607 472.749 263.916C464.138 271.135 464.337 284.292 472.87 291.517C478.353 295.728 477.338 303.58 471.231 306.968C461.107 311.842 458.597 325.087 465.431 333.962C469.743 338.929 467.053 346.755 460.579 348.719C449.584 351.387 443.999 363.295 449.134 373.821C451.884 379.796 447.657 386.953 440.955 386.85C429.479 387.06 421.463 397.77 424.141 408.774C425.721 415.504 419.842 420.959 413.416 419.571C402.493 417.21 391.93 425.689 392.152 437.17C392.056 443.875 385.031 448.41 379.271 445.484C369.153 440.943 356.824 446.686 354.476 457.612C353.095 464.04 345.061 467.011 340.22 462.939C331.296 455.966 318.487 459.251 313.317 469.231C310.651 475.381 302.388 476.285 298.076 471.318C290.852 462.695 277.7 462.88 270.488 471.409C266.285 476.89 258.436 475.867 255.043 469.753C250.161 459.618 236.919 457.093 228.056 463.921C223.096 468.23 215.271 465.53 213.301 459.051C210.622 448.048 198.714 442.448 188.199 447.574C182.23 450.319 175.072 446.082 175.168 439.377C174.945 427.895 164.232 419.863 153.236 422.532C147.291 423.601 141.442 417.965 142.571 411.147C144.919 400.221 136.433 389.644 124.957 389.854C118.255 389.751 113.968 383.108 116.634 376.958C121.161 366.839 115.408 354.499 104.485 352.138C98.0592 350.75 95.0804 342.708 99.1458 337.87C106.106 328.949 102.808 316.13 92.8277 310.947C86.6783 308.273 85.7653 300.005 90.7255 295.696C99.3367 288.477 99.1382 275.32 90.6047 268.095C85.1219 263.884 86.1366 256.032 92.2438 252.644C102.368 247.77 105.269 234.273 98.0441 225.65C93.7323 220.683 96.4224 212.857 102.896 210.893C113.891 208.225 119.476 196.317 114.341 185.791C111.591 179.816 115.818 172.659 122.52 172.762C133.996 172.552 142.012 161.842 139.334 150.838C137.754 144.108 143.633 138.653 150.059 140.041C160.982 142.402 171.545 133.923 171.323 122.442C171.419 115.737 178.444 111.202 184.204 114.128C194.322 118.669 206.651 112.926 208.999 101.999C210.38 95.5723 218.414 92.6007 223.255 96.6732C232.179 103.646 244.988 100.361 250.158 90.3808C252.824 84.2313 261.087 83.3267 265.399 88.2939C272.623 96.917 285.775 96.7325 292.987 88.2026C297.19 82.7216 305.039 83.7451 308.432 89.8589C313.314 99.9936 326.556 102.519 335.419 95.6909C340.379 91.3823 348.204 94.082 350.174 100.561C352.853 111.564 364.761 117.164 375.276 112.038C381.245 109.293 388.403 113.53 388.307 120.235C388.53 131.717 399.243 139.749 410.239 137.08C416.184 136.011 422.033 141.647 420.904 148.465Z" fill="white" stroke="#888888" stroke-width="1.8401"></path><path d="M210.201 162.117C146.577 203.182 128.348 288.021 169.461 351.719C210.574 415.418 295.391 433.747 359.015 392.682C422.639 351.617 440.868 266.778 399.755 203.08C358.642 139.382 273.825 121.053 210.201 162.117ZM336.314 357.511C292.207 385.979 233.092 373.205 204.59 329.046C176.089 284.887 188.794 225.757 232.901 197.288C277.009 168.82 336.124 181.595 364.626 225.754C393.127 269.913 380.812 328.791 336.314 357.511Z" fill="#111313"></path><path d="M108.604 348.926L418.526 148.893C430.236 141.335 446.3 144.806 453.866 156.53L463.199 170.989C470.766 182.713 467.313 198.781 455.603 206.339L145.681 406.372C133.971 413.93 117.907 410.458 110.341 398.735L101.008 384.276C93.4415 372.552 96.894 356.484 108.604 348.926Z" fill="#C01818"></path><path d="M182.675 247.974L166.954 247.603C169.776 248.549 171.704 248.966 172.989 249.244L181.457 252.082L180.376 255.548L162.294 248.95L163.651 244.199L178.982 244.822L166.341 236.373L167.698 231.622L185.918 237.577L184.837 241.043L176.37 238.204C175.727 238.065 175.475 237.675 175.085 237.927C174.442 237.788 173.157 237.51 170.725 236.312L183.618 245.151L182.675 247.974Z" fill="white"></path><path d="M188.848 212.989C191.532 214.578 193.436 216.671 194.055 218.486C194.925 220.692 194.511 222.62 192.926 225.304C191.731 227.736 189.779 228.996 187.713 229.222C185.648 229.448 183.077 228.893 180.393 227.304C177.709 225.715 175.805 223.622 175.186 221.807C174.316 219.601 174.73 217.673 176.315 214.989C177.51 212.557 179.462 211.297 181.528 211.071C183.593 210.845 186.164 211.401 188.848 212.989ZM182.369 224.368C184.158 225.427 185.696 226.096 187.119 225.731C188.152 225.618 189.323 224.862 190.241 223.715C191.827 221.031 190.956 218.825 187.125 216.316C183.545 214.198 180.837 214.285 179.252 216.969C178.333 218.115 178.309 219.792 178.813 220.573C179.18 221.997 180.327 222.918 182.369 224.368Z" fill="white"></path><path d="M210.911 202.625L207.512 205.926L191.838 202.202C193.88 203.652 195.279 204.963 195.784 205.745L202.528 211.91L200.3 214.455L186.307 201.343L189.706 198.042L205.632 202.156C203.59 200.706 202.191 199.395 201.687 198.614L194.69 192.058L196.918 189.512L210.911 202.625Z" fill="white"></path><path d="M223.425 192.887L215.733 198.959L203.83 183.944L211.913 177.62L214.069 180.104L208.856 184.022L211.517 187.287L216.339 183.621L218.495 186.104L213.673 189.77L216.838 193.817L222.05 189.899L223.425 192.887Z" fill="white"></path><path d="M227.13 177.209L225.965 168.551L229.478 166.283L230.709 179.328L234.354 185.832L231.232 187.848L227.586 181.343L216.345 174.206L219.858 171.939L227.13 177.209Z" fill="white"></path><path d="M244.01 159.672L249.06 158.073C251.264 157.204 253.33 156.978 254.615 157.255C255.9 157.533 256.657 158.705 257.666 160.269C257.78 161.302 257.894 162.336 258.008 163.369C257.87 164.012 257.342 164.906 256.561 165.41C257.594 165.297 258.879 165.575 259.131 165.966C260.026 166.495 260.531 167.277 260.897 168.701C261.515 170.516 261.239 171.802 260.573 173.339C259.654 174.486 258.345 175.884 256.531 176.501L250.31 178.856L244.01 159.672ZM251.487 168.685L252.838 173.349L255.042 172.48C256.075 172.367 256.603 171.472 256.994 171.221C257.132 170.578 257.27 169.935 257.156 168.902C256.789 167.477 255.252 166.809 253.438 167.426L251.487 168.685ZM250.112 165.698L252.315 164.829C253.096 164.325 254.129 164.212 254.267 163.569C254.657 163.317 254.543 162.284 254.291 161.893C253.787 161.112 253.534 160.721 252.892 160.582C252.249 160.443 251.607 160.304 250.436 161.06L248.622 161.677L250.112 165.698Z" fill="white"></path><path d="M277.237 170.887L275.105 166.727L268.77 168.049L268.445 172.686L264.566 173.53L267.172 153.579L271.694 152.875L280.978 170.687L277.237 170.887ZM273.478 163.349C271.598 159.58 270.727 157.374 270.223 156.593C269.97 156.202 269.718 155.811 269.466 155.42C269.58 156.454 269.28 159.416 268.956 164.053L273.478 163.349Z" fill="white"></path><path d="M290.628 153.94C288.953 153.915 288.172 154.418 287.253 155.565C286.334 156.712 286.31 158.388 285.896 160.316C285.962 164.702 287.223 166.656 290.574 166.707C291.607 166.594 293.283 166.62 294.844 165.612L294.796 168.965C293.625 169.721 291.559 169.947 289.884 169.921C287.176 170.008 285.386 168.949 283.987 167.638C282.335 165.936 281.855 163.478 281.903 160.126C281.674 158.059 282.341 156.521 283.008 154.984C283.674 153.446 284.593 152.3 285.764 151.544C286.935 150.788 288.358 150.423 290.033 150.449C291.709 150.475 293.637 150.891 295.174 151.56L294.093 155.025C293.451 154.887 292.556 154.357 291.913 154.218C291.913 154.218 291.271 154.079 290.628 153.94Z" fill="white"></path><path d="M313.178 172.601L308.932 172.02L305.449 163.196L303.888 164.204L302.759 171.022L299.156 170.58L301.876 151.663L305.479 152.105L304.326 160.6L306.164 158.306L311.79 152.46L316.036 153.042L308.71 160.538L313.178 172.601Z" fill="white"></path><path d="M406.495 290.625C404.543 291.884 401.583 291.581 400.07 289.236C398.808 287.282 399.109 284.32 401.451 282.809C403.402 281.549 406.363 281.853 407.876 284.197C409.137 286.151 408.837 289.113 406.495 290.625ZM402.46 284.372C401.289 285.128 400.874 287.056 401.631 288.228C402.388 289.401 404.315 289.817 405.486 289.061C406.657 288.306 407.072 286.378 406.315 285.205C405.558 284.033 404.021 283.364 402.46 284.372Z" fill="white"></path><path d="M249.583 391.901C247.631 393.161 244.67 392.857 243.157 390.512C241.896 388.558 242.196 385.597 244.538 384.085C246.49 382.826 249.45 383.129 250.964 385.474C252.225 387.428 251.534 390.641 249.583 391.901ZM245.547 385.648C244.376 386.404 243.962 388.332 244.718 389.505C245.475 390.677 247.403 391.094 248.574 390.338C249.745 389.582 250.159 387.654 249.402 386.482C248.646 385.309 246.718 384.893 245.547 385.648Z" fill="white"></path><path d="M327.8 168.699C325.849 169.959 322.888 169.655 321.375 167.31C320.114 165.356 320.414 162.395 322.756 160.883C324.708 159.623 327.668 159.927 329.181 162.272C330.695 164.616 330.142 167.187 327.8 168.699ZM324.017 162.837C322.846 163.593 322.432 165.521 323.188 166.693C323.945 167.866 325.873 168.282 327.044 167.527C328.215 166.771 328.629 164.843 327.872 163.67C326.863 162.107 325.578 161.829 324.017 162.837Z" fill="white"></path><path d="M170.888 269.975C168.936 271.235 165.976 270.931 164.462 268.587C163.201 266.633 163.501 263.671 165.843 262.16C167.795 260.9 170.756 261.203 172.269 263.548C173.782 265.893 172.84 268.716 170.888 269.975ZM167.104 264.113C165.933 264.869 165.519 266.797 166.276 267.97C167.033 269.142 168.96 269.559 170.131 268.803C171.302 268.047 171.716 266.119 170.96 264.947C169.951 263.383 168.275 263.358 167.104 264.113Z" fill="white"></path><path d="M268.817 390.004L275.885 391.532L274.204 400.921C273.171 401.034 271.748 401.399 270.853 400.869C269.82 400.982 268.535 400.704 267.893 400.566C265.322 400.01 263.281 398.56 262.272 396.997C261.01 395.043 260.92 392.333 261.611 389.12C262.301 385.906 263.358 384.117 265.7 382.605C267.652 381.346 270.108 380.868 273.321 381.562C275.248 381.978 276.786 382.647 278.575 383.706L276.6 386.642C275.453 385.722 273.915 385.053 272.63 384.775C270.703 384.359 269.279 384.724 268.361 385.87C267.19 386.626 266.133 388.415 266.109 390.092C265.694 392.02 265.67 393.696 266.427 394.868C267.184 396.041 268.331 396.961 269.616 397.239C270.258 397.378 271.291 397.265 271.934 397.404L272.763 393.547L269.55 392.853L268.817 390.004Z" fill="white"></path><path d="M298.314 382.591L299.041 394.854C299.408 396.279 299.131 397.564 298.213 398.711C297.684 399.605 296.765 400.752 295.594 401.508C294.423 402.264 293 402.629 291.325 402.603C289.259 402.829 287.079 402.022 285.932 401.101C284.533 399.79 283.914 397.975 283.686 395.908L282.959 383.645L286.7 383.444L287.956 394.813C287.932 396.489 288.436 397.271 288.941 398.052C289.445 398.834 290.73 399.111 291.763 398.998C292.796 398.885 294.219 398.52 294.357 397.878C294.886 396.983 295.414 396.088 295.048 394.664L294.183 383.044L298.314 382.591Z" fill="white"></path><path d="M320.155 396.727L317.633 392.819L311.16 394.783L311.088 399.812L306.956 400.264L307.886 380.288L312.546 378.941L324.035 395.884L320.155 396.727ZM315.615 389.693C313.345 386.176 311.832 383.831 311.58 383.44C311.327 383.049 311.075 382.659 310.823 382.268C310.937 383.301 310.637 386.263 310.955 391.04L315.615 389.693Z" fill="white"></path><path d="M331.157 384.644L334.159 391.01L330.784 392.635L322.395 375.353L326.941 372.972C329.145 372.103 330.958 371.486 332.886 371.903C334.171 372.181 335.57 373.492 336.579 375.055C337.083 375.837 337.198 376.87 336.921 378.156C337.036 379.189 336.507 380.084 335.588 381.23C340.062 383.879 342.747 385.467 343.894 386.388L340.128 388.265L333.108 383.385L331.157 384.644ZM329.781 381.657L330.952 380.901C332.123 380.145 332.904 379.641 333.042 378.999C333.18 378.356 333.318 377.713 332.814 376.932C332.309 376.15 332.057 375.759 331.415 375.62C330.772 375.482 329.739 375.595 328.568 376.35L327.397 377.106L329.781 381.657Z" fill="white"></path><path d="M359.116 376.563L355.423 373.41L349.568 377.189L350.92 381.853L347.407 384.121L342.278 364.18L346.181 361.661L362.377 373.904L359.116 376.563ZM352.877 371.179C349.436 368.418 347.784 366.716 347.142 366.577C346.89 366.186 346.247 366.047 345.995 365.656C346.109 366.69 347.232 369.286 348.583 373.95L352.877 371.179Z" fill="white"></path><path d="M380.38 358.963L376.591 362.516L360.942 357.116C362.593 358.818 363.992 360.13 364.749 361.302L370.712 367.971L368.232 370.125L355.549 355.615L358.948 352.314L374.597 357.713C372.946 356.011 371.547 354.7 371.042 353.919L365.079 347.249L367.949 344.843L380.38 358.963Z" fill="white"></path><path d="M391.267 345.847L388.901 349.035L376.146 339.553L373.252 343.635L370.706 341.403L379.113 330.442L382.049 332.421L379.155 336.504L391.267 345.847Z" fill="white"></path><path d="M402.779 325.131L398.389 334.607L380.974 326.472L385.364 316.996L388.438 318.333L385.772 324.482L389.742 326.349L392.27 320.842L395.344 322.179L392.816 327.686L397.428 329.692L400.094 323.542L402.779 325.131Z" fill="white"></path><path d="M407.45 304.955L405.883 315.377L386.973 312.636L388.54 302.213L391.753 302.908L390.624 309.726L394.87 310.307L395.86 304.132L399.073 304.826L398.082 311.001L402.971 311.721L404.099 304.903L407.45 304.955Z" fill="white"></path><path d="M240.192 210.297L227.407 211.906L239.766 231.055L252.803 229.837L259.283 218.458L246.924 199.31L240.192 210.297Z" fill="#414042"></path><path d="M215.877 224.884L221.613 229.486L227.467 225.707L225.054 232.247L230.536 236.458L223.192 236.216L220.778 242.757L219.199 236.026L211.854 235.784L217.709 232.005L215.877 224.884Z" fill="#414042"></path><path d="M263.107 194.4L268.842 199.002L274.307 195.475L271.893 202.015L277.376 206.227L270.422 205.733L268.008 212.273L266.429 205.542L259.475 205.048L265.329 201.269L263.107 194.4Z" fill="#414042"></path><path d="M323.907 341.715L336.692 340.106L324.585 321.349L311.548 322.567L305.069 333.945L317.428 353.094L323.907 341.715Z" fill="#414042"></path><path d="M348.612 326.877L343.129 322.666L337.274 326.445L339.688 319.904L333.953 315.302L340.907 315.796L343.321 309.256L345.153 316.377L352.107 316.871L346.252 320.65L348.612 326.877Z" fill="#414042"></path><path d="M301.382 357.361L295.899 353.149L290.045 356.928L292.458 350.388L287.114 345.534L294.068 346.028L296.482 339.488L298.313 346.609L305.267 347.103L299.412 350.882L301.382 357.361Z" fill="#414042"></path><path d="M209.619 348.417C207.213 349.969 204.803 350.939 202.389 351.325C199.98 351.694 197.761 351.498 195.733 350.737C193.709 349.959 192.061 348.619 190.788 346.717L197.812 342.183C198.375 342.961 199.096 343.5 199.974 343.8C200.857 344.083 201.814 344.127 202.845 343.933C203.876 343.739 204.902 343.313 205.922 342.654C206.986 341.968 207.804 341.173 208.378 340.271C208.952 339.368 209.254 338.434 209.286 337.47C209.318 336.506 209.054 335.589 208.492 334.719C207.924 333.838 207.174 333.219 206.243 332.861C205.316 332.486 204.271 332.399 203.109 332.602C201.957 332.798 200.758 333.298 199.512 334.102L196.435 336.088L193.128 330.964L196.205 328.978C197.258 328.299 198.069 327.517 198.639 326.631C199.22 325.739 199.527 324.825 199.563 323.89C199.591 322.943 199.324 322.035 198.763 321.165C198.229 320.338 197.562 319.741 196.763 319.375C195.967 318.991 195.1 318.85 194.163 318.953C193.236 319.049 192.305 319.399 191.37 320.002C190.425 320.612 189.671 321.342 189.109 322.192C188.54 323.031 188.22 323.915 188.15 324.843C188.079 325.771 188.298 326.664 188.807 327.523L182.12 331.838C180.926 329.916 180.386 327.891 180.503 325.761C180.62 323.632 181.306 321.583 182.562 319.616C183.822 317.631 185.58 315.911 187.836 314.455C190.113 312.985 192.372 312.113 194.614 311.838C196.856 311.563 198.903 311.823 200.757 312.62C202.614 313.4 204.099 314.663 205.211 316.41C206.414 318.25 206.834 320.163 206.471 322.147C206.119 324.124 205.127 325.875 203.495 327.4L203.661 327.658C206.289 326.403 208.681 326.054 210.836 326.61C212.995 327.15 214.731 328.448 216.044 330.507C217.268 332.38 217.804 334.4 217.651 336.568C217.509 338.729 216.752 340.845 215.381 342.917C214.01 344.989 212.089 346.822 209.619 348.417ZM240.444 328.909C237.666 330.687 234.841 331.544 231.97 331.48C229.109 331.409 226.313 330.437 223.582 328.563C220.862 326.682 218.342 323.934 216.024 320.318C213.701 316.72 212.254 313.31 211.681 310.089C211.119 306.86 211.405 303.944 212.54 301.341C213.678 298.719 215.627 296.518 218.388 294.736C221.148 292.954 223.952 292.088 226.798 292.138C229.656 292.18 232.44 293.122 235.15 294.964C237.853 296.795 240.361 299.513 242.672 303.118C245.009 306.738 246.468 310.178 247.051 313.438C247.645 316.692 247.385 319.636 246.271 322.272C245.157 324.908 243.215 327.12 240.444 328.909ZM236.711 323.125C238.601 321.905 239.497 319.98 239.397 317.351C239.298 314.722 238.016 311.51 235.551 307.714C233.936 305.212 232.333 303.294 230.743 301.962C229.164 300.623 227.636 299.836 226.161 299.601C224.697 299.36 223.336 299.645 222.079 300.456C220.2 301.669 219.302 303.579 219.388 306.187C219.473 308.795 220.72 311.976 223.129 315.732C224.765 318.267 226.383 320.22 227.983 321.591C229.587 322.945 231.13 323.744 232.613 323.99C234.088 324.224 235.454 323.936 236.711 323.125ZM280.666 301.921L268.969 309.471L247.672 276.474L259.465 268.862C262.784 266.72 266.068 265.537 269.316 265.312C272.557 265.076 275.616 265.772 278.492 267.4C281.379 269.021 283.929 271.545 286.14 274.971C288.359 278.408 289.615 281.781 289.91 285.091C290.216 288.393 289.587 291.485 288.023 294.366C286.469 297.24 284.017 299.758 280.666 301.921ZM272.087 298.991L276.518 296.131C278.58 294.8 280.079 293.315 281.015 291.677C281.954 290.02 282.279 288.19 281.99 286.186C281.704 284.164 280.768 281.923 279.18 279.463C277.606 277.025 275.961 275.265 274.243 274.183C272.535 273.094 270.743 272.638 268.864 272.816C266.986 272.993 265.015 273.748 262.953 275.079L258.506 277.949L272.087 298.991ZM305.804 285.696L298.328 290.521L288.422 250.173L297.412 244.37L330.084 270.025L322.609 274.85L297.913 254.728L297.655 254.895L305.804 285.696ZM296.966 273.028L314.624 261.631L318.139 267.076L300.48 278.474L296.966 273.028ZM307.458 237.886L315.272 232.843L331.968 242.197L332.29 241.989L330.643 222.922L338.457 217.879L340.19 246.979L347.719 258.643L340.791 263.115L333.262 251.45L307.458 237.886ZM366.292 213.356C365.325 212.139 364.12 211.487 362.678 211.398C361.236 211.309 359.677 211.806 358.001 212.887C356.863 213.622 356.006 214.403 355.429 215.232C354.846 216.049 354.526 216.873 354.467 217.702C354.42 218.523 354.625 219.289 355.082 219.998C355.442 220.602 355.898 221.038 356.451 221.305C357.014 221.566 357.642 221.701 358.333 221.711C359.018 221.711 359.753 221.624 360.539 221.451C361.319 221.268 362.12 221.024 362.944 220.721L366.366 219.516C368.013 218.91 369.611 218.487 371.161 218.247C372.711 218.008 374.179 217.996 375.566 218.212C376.953 218.427 378.231 218.911 379.401 219.662C380.581 220.407 381.62 221.463 382.518 222.831C383.811 224.857 384.426 226.941 384.362 229.081C384.302 231.205 383.579 233.291 382.194 235.342C380.813 237.374 378.78 239.257 376.095 240.99C373.431 242.71 370.847 243.799 368.344 244.258C365.852 244.711 363.536 244.494 361.396 243.607C359.261 242.703 357.4 241.082 355.814 238.743L362.565 234.385C363.354 235.443 364.268 236.162 365.304 236.543C366.345 236.906 367.459 236.97 368.647 236.736C369.839 236.484 371.036 235.97 372.239 235.194C373.421 234.431 374.336 233.597 374.984 232.692C375.643 231.78 376.016 230.862 376.105 229.938C376.193 229.013 375.98 228.154 375.467 227.359C374.989 226.618 374.367 226.137 373.6 225.916C372.845 225.689 371.934 225.668 370.867 225.854C369.811 226.034 368.588 226.367 367.198 226.853L363.023 228.27C359.804 229.389 356.925 229.749 354.385 229.349C351.845 228.95 349.793 227.527 348.23 225.082C346.93 223.091 346.335 221.003 346.445 218.816C346.567 216.623 347.302 214.498 348.652 212.44C350.002 210.382 351.879 208.576 354.285 207.023C356.734 205.443 359.142 204.482 361.509 204.141C363.886 203.794 366.067 204.037 368.051 204.871C370.035 205.706 371.678 207.095 372.979 209.04L366.292 213.356Z" fill="white"></path></g></svg>