<svg width="64" height="64" viewBox="0 0 64 64" fill="none" xmlns="http://www.w3.org/2000/svg">
<path d="M30.595 45.9825L33.6738 46.0288C34.0888 46.0288 34.425 46.365 34.425 46.7763C34.425 46.8088 34.4212 46.84 34.4175 46.8725C34.2475 50.0263 34.5775 52.9 35.7425 55.3025C36.8975 57.6838 38.9 59.6213 42.0812 60.9363C42.4637 61.0925 42.645 61.5313 42.4887 61.9138C42.3687 62.2013 42.0925 62.375 41.7975 62.375V62.3788L22.4688 62.3325C22.0538 62.3325 21.7175 62 21.7175 61.585C21.7175 61.2525 21.9375 60.9688 22.2388 60.8688C25.5875 59.4763 27.5825 57.5988 28.6838 55.285C29.81 52.9213 30.0413 50.0663 29.8463 46.7775C29.8213 46.3663 30.1363 46.0125 30.5475 45.9875C30.565 45.9875 30.58 45.9875 30.5938 45.9875V45.9825H30.595Z" fill="white"/>
<path fill-rule="evenodd" clip-rule="evenodd" d="M32.0012 16.275H62.0025V46.775H2V16.275H32.0012Z" fill="white"/>
<path d="M48.8 1.62375H15.2025V38.63H48.8V1.62375Z" fill="#008744"/>
<path d="M61.2513 46.4H2.74875V17.3975H14.4525V39.005C14.4525 39.42 14.7888 39.7562 15.2038 39.7562H48.8C49.215 39.7562 49.5475 39.42 49.5475 39.005V17.3975H61.2513V46.4ZM35.5375 56.3288C36.505 58.32 37.9688 59.9675 39.91 61.25H24.1638C26.2113 59.95 27.6863 58.3263 28.6313 56.3463C29.68 54.15 30.1125 51.45 29.9738 47.8987H34.0313C33.9288 51.2725 34.425 54.0388 35.5375 56.3288ZM15.95 2.75H48.05V38.2575H15.95V2.75ZM62.0025 15.8987H49.5475V1.99875C49.5475 1.5875 49.215 1.25125 48.8 1.25125H15.2025C14.7875 1.25125 14.4513 1.5875 14.4513 1.99875V15.8987H2C1.585 15.8987 1.24875 16.235 1.24875 16.6462V47.15C1.24875 47.5613 1.585 47.8975 2 47.8975H28.475C28.73 53.96 27.4125 58.5625 20.775 61.305C20.445 61.44 20.2575 61.7938 20.325 62.1413C20.3963 62.495 20.7038 62.7475 21.0625 62.7475H42.9388C43.2963 62.7475 43.605 62.4963 43.6725 62.1413C43.7438 61.7938 43.555 61.44 43.2263 61.305C37.7725 59.0512 35.3175 54.7813 35.5338 47.8975H62.0025C62.4175 47.8975 62.75 47.5613 62.75 47.15V16.6462C62.75 16.2362 62.4175 15.8987 62.0025 15.8987Z" fill="#008744"/>
<path d="M21.1274 31.3374H34.9249C35.3399 31.3374 35.6762 31.6736 35.6762 32.0849C35.6762 32.4999 35.3399 32.8361 34.9249 32.8361H21.1274C20.7124 32.8361 20.3799 32.4999 20.3799 32.0849C20.3799 31.6736 20.7124 31.3374 21.1274 31.3374Z" fill="white"/>
<path d="M42.8762 25.1186H21.1274C20.7124 25.1186 20.3799 24.7824 20.3799 24.3674C20.3799 23.9561 20.7124 23.6199 21.1274 23.6199H42.8762C43.2912 23.6199 43.6274 23.9561 43.6274 24.3674C43.6274 24.7824 43.2912 25.1186 42.8762 25.1186Z" fill="white"/>
<path d="M42.8762 17.3974H21.1274C20.7124 17.3974 20.3799 17.0611 20.3799 16.6461C20.3799 16.2349 20.7124 15.8986 21.1274 15.8986H42.8762C43.2912 15.8986 43.6274 16.2349 43.6274 16.6461C43.6274 17.0611 43.2912 17.3974 42.8762 17.3974Z" fill="white"/>
<path d="M42.8762 9.68114H21.1274C20.7124 9.68114 20.3799 9.34364 20.3799 8.92989C20.3799 8.51864 20.7124 8.18239 21.1274 8.18239H42.8762C43.2912 8.18239 43.6274 8.51864 43.6274 8.92989C43.6274 9.34489 43.2912 9.68114 42.8762 9.68114Z" fill="white"/>
<path d="M43.9249 31.3374H45.9512C46.3662 31.3374 46.6999 31.6736 46.6999 32.0849C46.6999 32.4999 46.3674 32.8361 45.9524 32.8361H43.9262V34.8624C43.9262 35.2774 43.5899 35.6136 43.1749 35.6136C42.7599 35.6136 42.4237 35.2774 42.4237 34.8624V32.8361H40.3999C39.9849 32.8361 39.6487 32.4999 39.6487 32.0849C39.6487 31.6736 39.9849 31.3374 40.3999 31.3374H42.4224V29.3111C42.4224 28.8999 42.7587 28.5636 43.1737 28.5636C43.5887 28.5636 43.9249 28.8999 43.9249 29.3111V31.3374Z" fill="white"/>
</svg>
