<svg width="64" height="64" viewBox="0 0 64 64" fill="none" xmlns="http://www.w3.org/2000/svg">
<path fill-rule="evenodd" clip-rule="evenodd" d="M32 56.4688C45.5137 56.4688 56.4688 45.5137 56.4688 32C56.4688 18.4863 45.5137 7.53125 32 7.53125C18.4863 7.53125 7.53125 18.4863 7.53125 32C7.53125 45.5137 18.4863 56.4688 32 56.4688ZM59 32C59 46.9117 46.9117 59 32 59C17.0883 59 5 46.9117 5 32C5 17.0883 17.0883 5 32 5C46.9117 5 59 17.0883 59 32Z" fill="#008744"/>
<path d="M15 31.8287L26.6571 26.5691V29.105L17.8171 32.8619L26.6571 36.5249V38.9669L15 33.8011V31.8287ZM28.4057 40L33.5543 23H35.9829L30.8343 40H28.4057ZM49 33.895L37.3429 39.0608V36.6188L46.3771 32.8619V32.768L37.3429 29.0111V26.5691L49 31.7348V33.895Z" fill="#008744"/>
</svg>
