<svg width="64" height="64" viewBox="0 0 64 64" fill="none" xmlns="http://www.w3.org/2000/svg">
<path d="M19.6193 23.1515H57.5183C58.3345 23.1515 58.9971 23.8142 58.9971 24.6304V50.8821C58.9971 51.6983 58.3345 52.361 57.5183 52.361H19.6192C18.803 52.361 18.1404 51.6983 18.1404 50.8823V24.6305C18.1404 23.8143 18.8031 23.1516 19.6193 23.1516V23.1515Z" fill="#008744"/>
<path d="M57.3541 25.6781H20.667V48.4564H57.3541V25.6781Z" fill="white"/>
<path d="M42.2468 52.3609H35.7746V56.2912H42.2468V52.3609Z" fill="#008744"/>
<path fill-rule="evenodd" clip-rule="evenodd" d="M32.4201 56.2911H45.6012C46.9347 56.2911 48.0223 57.3789 48.0223 58.7121V59.2996H29.999V58.7121C29.999 57.3786 31.0867 56.2911 32.4201 56.2911Z" fill="#008744"/>
<path fill-rule="evenodd" clip-rule="evenodd" d="M37.4602 17.5487V18.633C37.4602 18.8921 37.169 19.0423 36.9578 18.8921L32.3501 15.6155L36.9578 12.3391C37.169 12.189 37.4602 12.3393 37.4602 12.5982V14.5085H45.7185C45.8854 14.5085 46.0217 14.6447 46.0216 14.8116V16.4193V16.4202C46.0211 16.5867 45.8851 16.7224 45.7184 16.7224H37.4601L37.4602 17.5487Z" fill="#008744"/>
<path fill-rule="evenodd" clip-rule="evenodd" d="M22.2656 5.56104L28.2365 11.5319C28.5909 11.8741 28.7974 12.2981 28.7975 12.7979V34.1076H6V5.00002H20.9997C21.4996 5.00002 21.9234 5.20663 22.2656 5.56104Z" fill="#008744"/>
<path fill-rule="evenodd" clip-rule="evenodd" d="M22.2893 5.91066L26.9686 10.59C26.7065 10.4633 26.4129 10.3923 26.1031 10.3923H22.8517V7.29833C22.8517 6.76023 22.6371 6.27069 22.2893 5.91077V5.91066Z" fill="#0A5B33"/>
<path fill-rule="evenodd" clip-rule="evenodd" d="M10.1102 19.0944C9.68441 19.0944 9.33926 18.7492 9.33926 18.3234C9.33926 17.8977 9.68441 17.5525 10.1102 17.5525H24.6868C25.1126 17.5525 25.4577 17.8977 25.4577 18.3234C25.4577 18.7492 25.1126 19.0944 24.6868 19.0944H10.1102ZM10.1102 11.8283C9.68441 11.8283 9.33926 11.4831 9.33926 11.0573C9.33926 10.6316 9.68441 10.2864 10.1102 10.2864H15.0312C15.457 10.2864 15.8022 10.6316 15.8022 11.0573C15.8022 11.4831 15.457 11.8283 15.0312 11.8283H10.1102ZM10.1102 15.4613C9.68441 15.4613 9.33926 15.1162 9.33926 14.6904C9.33926 14.2646 9.68441 13.9195 10.1102 13.9195H17.7794C18.2052 13.9195 18.5503 14.2646 18.5503 14.6904C18.5503 15.1162 18.2052 15.4613 17.7794 15.4613H10.1102ZM10.1102 29.9935C9.68441 29.9935 9.33926 29.6484 9.33926 29.2226C9.33926 28.7968 9.68441 28.4517 10.1102 28.4517H24.6868C25.1126 28.4517 25.4577 28.7968 25.4577 29.2226C25.4577 29.6484 25.1126 29.9935 24.6868 29.9935H10.1102ZM10.1102 26.3605C9.68441 26.3605 9.33926 26.0153 9.33926 25.5896C9.33926 25.1638 9.68441 24.8186 10.1102 24.8186H24.6868C25.1126 24.8186 25.4577 25.1638 25.4577 25.5896C25.4577 26.0153 25.1126 26.3605 24.6868 26.3605H10.1102ZM10.1102 22.7274C9.68441 22.7274 9.33926 22.3823 9.33926 21.9565C9.33926 21.5307 9.68441 21.1856 10.1102 21.1856H24.6868C25.1126 21.1856 25.4577 21.5307 25.4577 21.9565C25.4577 22.3823 25.1126 22.7274 24.6868 22.7274H10.1102Z" fill="white"/>
<path fill-rule="evenodd" clip-rule="evenodd" d="M40.5613 38.5908V39.6751C40.5613 39.9342 40.8525 40.0845 41.0636 39.9342L45.6714 36.6578L41.0636 33.3813C40.8526 33.2312 40.5613 33.3816 40.5613 33.6405V35.5507H32.303C32.1361 35.5507 31.9998 35.687 31.9999 35.8538V37.4615C32.0005 37.6281 32.1364 37.7647 32.3031 37.7647H40.5614L40.5613 38.5908Z" fill="#008744"/>
</svg>
