<svg width="64" height="64" viewBox="0 0 64 64" fill="none" xmlns="http://www.w3.org/2000/svg">
<g clip-path="url(#clip0_1_46)">
<path d="M53.1469 26.9375H44.9551L43.7775 28.625H53.1302L33.6953 44.0803C33.3264 44.3745 32.8697 44.5369 32.3978 44.5417C31.926 44.5466 31.4661 44.3936 31.0912 44.1071L10.7895 28.6314C10.8109 28.6297 10.8313 28.625 10.8531 28.625H34.6041L35.0516 26.9375H10.8531C10.1961 26.9382 9.56617 27.1995 9.10159 27.6641C8.63701 28.1287 8.3757 28.7586 8.375 29.4156V56.5219C8.3757 57.1789 8.63701 57.8088 9.10159 58.2734C9.56617 58.738 10.1961 58.9993 10.8531 59H53.1469C53.8039 58.9993 54.4338 58.738 54.8984 58.2734C55.363 57.8088 55.6243 57.1789 55.625 56.5219V29.4156C55.6243 28.7586 55.363 28.1287 54.8984 27.6641C54.4338 27.1995 53.8039 26.9382 53.1469 26.9375ZM32.3757 46.2296C33.2368 46.2298 34.0724 45.9377 34.7459 45.4011L53.9375 30.1393V55.7633L40.994 42.9368L39.7145 44.0452L53.1029 57.3125H10.8829L24.3803 43.6339L23.078 42.5513L10.0625 55.7415V30.1996L30.0682 45.4493C30.7309 45.9556 31.5418 46.2298 32.3757 46.2296Z" fill="#008744"/>
<path d="M47.4948 5.3848C47.4182 5.26674 47.3133 5.1697 47.1896 5.1025C47.0659 5.03529 46.9274 5.00006 46.7866 5H41.1527C40.9914 4.99993 40.8334 5.04617 40.6976 5.13322C40.5617 5.22027 40.4537 5.34448 40.3864 5.49109L32.0775 23.5423C32.0182 23.6708 31.9922 23.8122 32.0019 23.9534C32.0117 24.0946 32.0568 24.2311 32.1331 24.3503C32.2094 24.4695 32.3146 24.5675 32.4387 24.6354C32.5629 24.7033 32.7022 24.7388 32.8438 24.7387H37.3806L34.2816 36.4243C34.2308 36.616 34.2491 36.8194 34.3333 36.9989C34.4175 37.1785 34.5623 37.3226 34.7422 37.406C34.922 37.4894 35.1256 37.5068 35.317 37.4552C35.5084 37.4035 35.6756 37.2861 35.789 37.1235L48.723 18.5894C48.8113 18.4629 48.8633 18.3147 48.8732 18.1608C48.8832 18.0068 48.8507 17.8531 48.7794 17.7163C48.7081 17.5796 48.6006 17.465 48.4687 17.385C48.3368 17.305 48.1855 17.2628 48.0313 17.2628H42.5967L47.5566 6.18858C47.6142 6.06008 47.6387 5.91922 47.6279 5.77884C47.6171 5.63845 47.5713 5.503 47.4948 5.3848Z" fill="#008744"/>
</g>
<defs>
<clipPath id="clip0_1_46">
<rect width="54" height="54" fill="white" transform="translate(5 5)"/>
</clipPath>
</defs>
</svg>
