<svg width="64" height="64" viewBox="0 0 64 64" fill="none" xmlns="http://www.w3.org/2000/svg">
<path d="M53.614 8H10.386C8.69293 8.00195 7.06977 8.67538 5.87258 9.87255C4.6754 11.0697 4.00196 12.6929 4 14.386V40.9123C4.00195 42.6054 4.67538 44.2285 5.87256 45.4257C7.06975 46.6229 8.69292 47.2963 10.386 47.2983H33.183V50.8578C33.1843 52.0299 33.6505 53.1536 34.4793 53.9825C35.3081 54.8113 36.4319 55.2775 37.604 55.2788H51.4294C52.6016 55.2775 53.7253 54.8113 54.5542 53.9825C55.383 53.1536 55.8492 52.0299 55.8505 50.8577V46.874C57.063 46.4151 58.1083 45.6001 58.8489 44.536C59.5895 43.472 59.9908 42.2087 60 40.9123V14.386C59.998 12.6929 59.3246 11.0697 58.1274 9.87255C56.9302 8.67538 55.3071 8.00195 53.614 8ZM52.9031 50.8577C52.9027 51.2484 52.7473 51.623 52.471 51.8993C52.1947 52.1756 51.8201 52.331 51.4294 52.3314H37.604C37.2133 52.331 36.8387 52.1756 36.5624 51.8993C36.2861 51.623 36.1307 51.2484 36.1303 50.8577V42.5826C36.1307 42.1919 36.2861 41.8173 36.5624 41.5411C36.8387 41.2648 37.2133 41.1094 37.604 41.109H38.4673C38.5899 41.106 50.4448 41.111 50.569 41.109H51.4294C51.8201 41.1094 52.1947 41.2648 52.471 41.5411C52.7472 41.8173 52.9026 42.1919 52.9031 42.5826L52.9031 50.8577ZM49.0668 38.1616H39.9695V35.266C39.9695 34.0597 40.4487 32.9027 41.3018 32.0497C42.1548 31.1966 43.3118 30.7174 44.5181 30.7174C45.7245 30.7174 46.8815 31.1966 47.7345 32.0497C48.5875 32.9027 49.0668 34.0597 49.0668 35.266L49.0668 38.1616ZM57.0526 40.9123C57.0499 41.4054 56.9411 41.8922 56.7337 42.3396C56.5262 42.787 56.225 43.1845 55.8505 43.5053C55.9497 42.9059 55.9288 42.2928 55.7892 41.7016C55.6495 41.1103 55.3938 40.5527 55.0369 40.0611C54.68 39.5695 54.229 39.1536 53.7101 38.8377C53.1912 38.5218 52.6147 38.3121 52.0141 38.2208L52.0142 35.266C52.0142 33.278 51.2244 31.3713 49.8187 29.9656C48.4129 28.5598 46.5063 27.7701 44.5182 27.7701C42.5301 27.7701 40.6235 28.5598 39.2177 29.9656C37.8119 31.3713 37.0222 33.278 37.0222 35.266V38.2204C35.9625 38.3593 34.9893 38.8781 34.2832 39.6804C33.5771 40.4826 33.1862 41.5139 33.183 42.5826V44.3509H10.386C9.47437 44.3498 8.60039 43.9871 7.95577 43.3425C7.31115 42.6979 6.94851 41.8239 6.94741 40.9123V14.386C6.94852 13.4743 7.31115 12.6004 7.95578 11.9557C8.6004 11.3111 9.47437 10.9485 10.386 10.9474H53.614C54.5256 10.9485 55.3996 11.3111 56.0442 11.9557C56.6889 12.6004 57.0515 13.4743 57.0526 14.386L57.0526 40.9123ZM53.212 17.3842L35.9135 27.6962C34.7304 28.4032 33.3779 28.7765 31.9997 28.7765C30.6215 28.7765 29.269 28.4032 28.086 27.6962L10.788 17.3842C10.4587 17.181 10.2225 16.8565 10.1305 16.4806C10.0384 16.1048 10.0979 15.7078 10.2961 15.3755C10.4943 15.0432 10.8152 14.8021 11.1896 14.7044C11.564 14.6066 11.9618 14.6601 12.2971 14.8532L29.5956 25.1652C30.3224 25.5994 31.1532 25.8287 31.9997 25.8287C32.8463 25.8287 33.6771 25.5994 34.4038 25.1652L51.7028 14.8532C52.0381 14.6598 52.4361 14.6062 52.8107 14.7038C53.1852 14.8015 53.5063 15.0426 53.7046 15.375C53.9028 15.7075 53.9623 16.1046 53.8701 16.4806C53.7779 16.8565 53.5415 17.1811 53.212 17.3842ZM44.5167 41.3862C43.742 41.3943 42.9926 41.6637 42.39 42.1507C41.7874 42.6377 41.3668 43.3138 41.1963 44.0696C41.0258 44.8254 41.1154 45.6166 41.4506 46.3151C41.7858 47.0137 42.3469 47.5786 43.0432 47.9185L43.043 49.9607C43.0485 50.3479 43.2062 50.7173 43.482 50.9892C43.7578 51.261 44.1295 51.4134 44.5167 51.4134C44.904 51.4134 45.2756 51.261 45.5514 50.9891C45.8272 50.7173 45.9848 50.3478 45.9904 49.9606V47.9185C46.6865 47.5785 47.2476 47.0136 47.5827 46.315C47.9178 45.6165 48.0073 44.8254 47.8368 44.0696C47.6663 43.3139 47.2458 42.6378 46.6432 42.1508C46.0407 41.6638 45.2914 41.3944 44.5167 41.3862ZM44.5167 44.3336C44.6453 44.3359 44.7678 44.3885 44.8579 44.4802C44.948 44.5719 44.9985 44.6953 44.9985 44.8239C44.9985 44.9524 44.948 45.0759 44.8579 45.1676C44.7678 45.2593 44.6453 45.3119 44.5167 45.3141C44.3882 45.3119 44.2657 45.2593 44.1756 45.1676C44.0854 45.0759 44.035 44.9524 44.035 44.8239C44.035 44.6953 44.0854 44.5719 44.1756 44.4802C44.2657 44.3885 44.3882 44.3359 44.5167 44.3336Z" fill="#008744"/>
</svg>
