<svg width="28" height="39" viewBox="0 0 28 39" fill="none" xmlns="http://www.w3.org/2000/svg">
<path d="M18.8223 28.6357C19.1193 28.4641 19.4745 28.4641 19.7715 28.6357L25.5439 31.9687C25.8409 32.1401 26.0184 32.4471 26.0186 32.79C26.0186 33.133 25.8411 33.4409 25.5439 33.6122L24.1426 34.4208L25.2207 36.287C25.4952 36.7626 25.331 37.3728 24.8555 37.6474L23.6104 38.3671C23.4541 38.4573 23.283 38.4999 23.1143 38.4999C22.7699 38.4999 22.4343 38.3209 22.25 38.0019L21.1729 36.1357L19.7715 36.9452C19.4745 37.1168 19.1194 37.1168 18.8223 36.9452C18.5254 36.7738 18.3478 36.4667 18.3477 36.1239V29.457C18.3477 29.1141 18.5254 28.8072 18.8223 28.6357ZM19.4609 35.8398L20.7021 35.123C20.8612 35.0311 21.0352 34.9873 21.207 34.9872C21.5577 34.9872 21.8993 35.1691 22.0869 35.4941L23.1553 37.3446L24.1982 36.7421L23.1299 34.8925C22.9945 34.658 22.9583 34.3845 23.0283 34.123C23.0985 33.8613 23.2664 33.6422 23.501 33.5068L24.7422 32.79L19.4609 29.7411V35.8398ZM0.737305 10.5146C1.04445 10.5146 1.29376 10.7631 1.29395 11.0702V33.5644C1.29395 34.1353 1.75905 34.6005 2.33008 34.6005H16.6455C16.9528 34.6005 17.2021 34.8499 17.2021 35.1571C17.202 35.4643 16.9527 35.7128 16.6455 35.7128H2.33008C1.14543 35.7128 0.181641 34.7491 0.181641 33.5644V11.0702C0.18183 10.7632 0.430249 10.5148 0.737305 10.5146ZM2.33008 0.512615C25.7747 0.590013 25.5611 0.387556 26.2822 0.602459C27.1678 0.866382 27.8184 1.6888 27.8184 2.66203V33.5644C27.8184 34.8121 26.7597 35.5878 26.2891 35.5878C25.6856 35.5874 25.5161 34.755 26.0723 34.5195C26.4566 34.3569 26.7051 33.9816 26.7051 33.5644V7.2509H1.29395V8.84465C1.29395 9.15191 1.04464 9.40129 0.737305 9.40129C0.430172 9.40114 0.181641 9.1519 0.181641 8.84465V2.66203C0.181641 1.47735 1.1455 0.512615 2.33008 0.512615ZM15.2939 27.1181C16.3461 27.1181 17.2021 27.9741 17.2021 29.0263V29.1025C17.2019 30.1546 16.3461 31.0107 15.2939 31.0107H12.7061C11.6539 31.0107 10.7981 30.1546 10.7979 29.1025V29.0263C10.7979 27.9741 11.6539 27.1181 12.7061 27.1181H15.2939ZM12.7061 28.2314C12.2675 28.2314 11.9103 28.5878 11.9102 29.0263V29.1025C11.9103 29.541 12.2675 29.8974 12.7061 29.8974H15.2939C15.7325 29.8974 16.0897 29.541 16.0898 29.1025V29.0263C16.0897 28.5878 15.7325 28.2314 15.2939 28.2314H12.7061ZM21.6279 20.4198C22.3102 20.4199 22.8652 20.9748 22.8652 21.6571V23.1044C22.8652 23.7867 22.3102 24.3426 21.6279 24.3427H6.37109C5.68874 24.3427 5.13379 23.7868 5.13379 23.1044V21.6571C5.13383 20.9748 5.68877 20.4198 6.37109 20.4198H21.6279ZM6.37109 21.5321C6.30239 21.5321 6.24613 21.5885 6.24609 21.6571V23.1044C6.24609 23.1731 6.30237 23.2294 6.37109 23.2294H21.6279C21.6966 23.2294 21.7529 23.1731 21.7529 23.1044V21.6571C21.7529 21.5885 21.6966 21.5322 21.6279 21.5321H6.37109ZM21.6279 14.121C22.3102 14.1211 22.8652 14.677 22.8652 15.3593V16.8066C22.8652 17.4889 22.3102 18.0438 21.6279 18.0439H6.37109C5.68874 18.0439 5.13379 17.4889 5.13379 16.8066V15.3593C5.13379 14.6769 5.68874 14.121 6.37109 14.121H21.6279ZM6.37109 15.2343C6.30237 15.2343 6.24609 15.2906 6.24609 15.3593V16.8066C6.24609 16.8753 6.30237 16.9316 6.37109 16.9316H21.6279C21.6966 16.9315 21.752 16.8752 21.752 16.8066V15.3593C21.752 15.2906 21.6965 15.2343 21.6279 15.2343H6.37109ZM19.2764 9.40129C19.5836 9.40129 19.833 9.65059 19.833 9.95793C19.8329 10.2651 19.5836 10.5146 19.2764 10.5146H8.72266C8.4155 10.5145 8.16611 10.2652 8.16602 9.95793C8.16602 9.65069 8.41536 9.40133 8.72266 9.40129H19.2764ZM25.6699 1.6259C1.05955 1.62953 2.32083 1.61651 2.18457 1.63566C1.67902 1.70691 1.29395 2.14291 1.29395 2.66203V6.13762H26.7051V2.66105C26.7048 2.09149 26.2417 1.62603 25.6699 1.6259ZM4.26953 2.17961C5.20806 2.17967 5.97161 2.94313 5.97168 3.88176C5.97168 4.82044 5.20818 5.58384 4.26953 5.5839C3.33083 5.5839 2.56738 4.82048 2.56738 3.88176C2.56745 2.94309 3.33088 2.17961 4.26953 2.17961ZM8.72266 2.17961C9.66115 2.17977 10.4247 2.94322 10.4248 3.88176C10.4248 4.82038 9.66122 5.58374 8.72266 5.5839C7.78396 5.5839 7.02051 4.82048 7.02051 3.88176C7.02061 2.94312 7.78402 2.17961 8.72266 2.17961ZM13.1768 2.17961C14.1153 2.17973 14.8788 2.94319 14.8789 3.88176C14.8789 4.8204 14.1154 5.58378 13.1768 5.5839C12.2381 5.5839 11.4746 4.82048 11.4746 3.88176C11.4747 2.94312 12.2381 2.17961 13.1768 2.17961ZM4.26953 3.29289C3.9445 3.29289 3.67976 3.55674 3.67969 3.88176C3.67969 4.20684 3.94453 4.4716 4.26953 4.4716C4.59448 4.47154 4.8584 4.20672 4.8584 3.88176C4.85833 3.55685 4.59443 3.29295 4.26953 3.29289ZM8.72266 3.29289C8.39772 3.29289 8.13291 3.55676 8.13281 3.88176C8.13281 4.20684 8.39766 4.4716 8.72266 4.4716C9.04759 4.47144 9.31152 4.20666 9.31152 3.88176C9.31142 3.55694 9.04745 3.29305 8.72266 3.29289ZM13.1768 3.29289C12.8517 3.29289 12.587 3.55676 12.5869 3.88176C12.5869 4.20684 12.8518 4.4716 13.1768 4.4716C13.5017 4.47148 13.7656 4.20669 13.7656 3.88176C13.7655 3.55691 13.5016 3.29301 13.1768 3.29289Z" fill="#62C166"/>
</svg>
