<svg width="42" height="43" viewBox="0 0 42 43" fill="none" xmlns="http://www.w3.org/2000/svg">
<g clip-path="url(#clip0_764_271)">
<path d="M37.8211 10.0336C32.0839 8.96896 27.5092 6.40639 24.2241 2.41737C22.5447 0.376763 19.4597 0.372333 17.776 2.41737C14.491 6.40639 9.9163 8.96896 4.17879 10.0336C1.89701 10.4572 0.345635 12.6275 0.814443 14.9122C3.10582 26.0699 10.0403 36.2732 18.9115 41.5409C20.1998 42.3058 21.8003 42.3059 23.0886 41.5409C31.9606 36.2727 38.8949 26.0692 41.1854 14.9121C41.6541 12.6284 40.1057 10.4576 37.8211 10.0336ZM39.9235 14.653C37.7035 25.4659 31.0006 35.3444 22.4306 40.433C21.5486 40.957 20.4515 40.957 19.5695 40.433C11.0002 35.3447 4.297 25.4666 2.07633 14.653C1.75313 13.0777 2.83922 11.5926 4.41397 11.3006C10.4572 10.179 15.2876 7.46574 18.7706 3.23645C19.9371 1.81928 22.0624 1.81928 23.2301 3.23645C26.7127 7.46574 31.5429 10.1787 37.5858 11.3006C39.1693 11.594 40.2456 13.0864 39.9235 14.653Z" fill="#2CB7EA"/>
<path d="M37.2336 13.2005C30.7314 11.9939 25.5176 9.05487 21.7374 4.46408C21.3485 3.99223 20.6607 3.9787 20.2625 4.46506C16.4824 9.05487 11.2689 11.9939 4.76609 13.2008C4.25068 13.2963 3.86579 13.7561 3.96964 14.2643C6.08433 24.5617 12.4399 33.9523 20.5541 38.7702C20.8277 38.9342 21.18 38.9296 21.4443 38.7714C29.5607 33.952 35.9163 24.5614 38.0307 14.2634C38.1341 13.7567 37.7513 13.2969 37.2336 13.2005ZM21.0002 37.5353C13.3941 32.9219 7.42217 24.1116 5.3166 14.4074C11.8342 13.136 17.1065 10.1725 21.0006 5.59086C24.893 10.1718 30.166 13.1361 36.6839 14.4074C34.5789 24.1107 28.6083 32.9201 21.0002 37.5353Z" fill="#2CB7EA"/>
<path d="M18.7808 15.8691C18.7808 16.4222 18.9902 16.9225 19.324 17.3121C18.9399 17.5567 18.5958 17.882 18.304 18.2703L17.9533 18.1561C17.3257 17.9517 16.9039 17.371 16.9039 16.7108V16.4667C16.9039 16.111 16.6155 15.8225 16.2597 15.8225C15.904 15.8225 15.6156 16.111 15.6156 16.4667V16.7108C15.6156 17.9306 16.3947 19.0038 17.5544 19.3809L17.672 19.4192C17.512 19.8333 17.401 20.2806 17.3472 20.7516H15.5321C15.1764 20.7516 14.8879 21.0401 14.8879 21.3958C14.8879 21.7516 15.1764 22.04 15.5321 22.04H17.3472C17.401 22.5109 17.5119 22.958 17.6719 23.372L17.5536 23.4104C16.394 23.7879 15.6148 24.8611 15.6148 26.0806V26.3246C15.6148 26.6804 15.9032 26.9688 16.259 26.9688C16.6148 26.9688 16.9032 26.6804 16.9032 26.3246V26.0806C16.9032 25.4204 17.325 24.8397 17.9525 24.6352L18.3039 24.5209C18.9795 25.4198 19.9389 25.9859 21.0052 25.9859C22.0684 25.9859 23.0252 25.4201 23.6992 24.5218L24.0475 24.6352C24.6753 24.8397 25.0968 25.4204 25.0968 26.0806V26.3246C25.0968 26.6804 25.3849 26.9688 25.741 26.9688C26.0971 26.9688 26.3852 26.6804 26.3852 26.3246V26.0806C26.3852 24.8611 25.6057 23.7879 24.4464 23.4104L24.33 23.3725C24.4898 22.9584 24.6006 22.5111 24.6542 22.04H26.4682C26.8243 22.04 27.1124 21.7516 27.1124 21.3958C27.1124 21.0401 26.8243 20.7516 26.4682 20.7516H24.6543C24.6008 20.2804 24.4899 19.8331 24.3301 19.4188L24.4458 19.3811C25.6052 19.0037 26.3846 17.9305 26.3846 16.7107V16.4667C26.3846 16.1109 26.0965 15.8225 25.7404 15.8225C25.3843 15.8225 25.0962 16.1109 25.0962 16.4667V16.7107C25.0962 17.3709 24.6748 17.9516 24.0469 18.156L23.6992 18.2692C23.407 17.8797 23.0622 17.5537 22.6774 17.309C23.0111 16.9198 23.2203 16.4207 23.2203 15.869C23.2203 14.6423 22.2226 13.6445 20.9959 13.6445C19.7745 13.6446 18.7808 14.6423 18.7808 15.8691ZM21.0053 24.6976C19.6763 24.6976 18.5949 23.2164 18.5949 21.3955C18.5949 19.5749 19.6763 18.0937 21.0053 18.0937C22.3284 18.0937 23.4044 19.5726 23.4061 21.3912C23.4061 21.3928 23.4052 21.3941 23.4052 21.3958C23.4052 21.3974 23.4061 21.3987 23.4061 21.4003C23.4041 23.2189 22.3283 24.6976 21.0053 24.6976ZM21.9319 15.8691C21.9319 16.3855 21.512 16.8054 20.9958 16.8054C20.485 16.8054 20.0692 16.3855 20.0692 15.8691C20.0692 15.3529 20.485 14.933 20.9958 14.933C21.512 14.9329 21.9319 15.3528 21.9319 15.8691Z" fill="#2CB7EA"/>
</g>
<defs>
<clipPath id="clip0_764_271">
<rect width="42" height="42" fill="white" transform="translate(0 0.5)"/>
</clipPath>
</defs>
</svg>
