<svg width="44" height="37" viewBox="0 0 44 37" fill="none" xmlns="http://www.w3.org/2000/svg">
<path d="M22.0962 10.9453C22.4391 10.9453 22.717 11.2226 22.7173 11.5654C22.7173 11.9085 22.4392 12.1865 22.0962 12.1865H3.43604C2.68373 12.1867 2.0718 12.7992 2.07178 13.5518V14.3984L7.45361 18.3896C7.72913 18.594 7.7867 18.9833 7.58252 19.2588C7.46072 19.4231 7.27247 19.5098 7.08252 19.5098C6.95407 19.5097 6.82446 19.4701 6.71338 19.3877L2.07178 15.9443V32.5137L12.2573 23.499L8.86279 20.9814C8.58723 20.7771 8.52961 20.3878 8.73389 20.1123C8.93824 19.8372 9.32679 19.7795 9.60205 19.9834L16.6606 25.2188C18.3681 26.4849 20.7157 26.4368 22.3696 25.1016L27.5112 20.9492C27.778 20.734 28.1688 20.7756 28.3843 21.042C28.5998 21.3089 28.5584 21.7006 28.2915 21.916L26.0249 23.7461L35.4819 32.4746V22.3682C35.4821 22.0253 35.7602 21.7472 36.103 21.7471C36.446 21.7471 36.7241 22.0253 36.7241 22.3682V33.8926L36.7231 33.9277C36.7043 35.349 35.5432 36.4997 34.1177 36.5H31.356C31.0129 36.5 30.7349 36.222 30.7349 35.8789C30.7349 35.5359 31.0129 35.2578 31.356 35.2578H34.1177C34.7846 35.2576 35.3407 34.7759 35.4585 34.1426L25.0483 24.5342L23.1499 26.0674C22.0696 26.9397 20.755 27.3788 19.439 27.3789C18.2039 27.3789 16.9672 26.9923 15.9204 26.2158L13.2769 24.2559L2.09717 34.1504C2.21797 34.7801 2.77175 35.2576 3.43604 35.2578H28.7095C29.0524 35.258 29.3306 35.536 29.3306 35.8789C29.3306 36.2219 29.0524 36.4998 28.7095 36.5H3.43604C2.00764 36.4998 0.84489 35.3441 0.830566 33.9189C0.830421 33.9153 0.829667 33.9117 0.82959 33.9082V13.5518C0.829612 12.1145 1.99879 10.9455 3.43604 10.9453H22.0962ZM30.9497 0.53418C32.0482 0.53418 32.9419 1.42792 32.9419 2.52637V3.27344C35.4247 4.10799 37.2192 6.45549 37.2192 9.21582V12.8984L37.9272 15.293C38.0399 15.6743 37.9678 16.0759 37.73 16.3945C37.4919 16.7132 37.1268 16.8964 36.729 16.8965H33.2134C33.3778 17.2128 33.4712 17.5717 33.4712 17.9521C33.4712 19.2192 32.4404 20.25 31.1733 20.25H30.7271C29.46 20.25 28.4292 19.2192 28.4292 17.9521C28.4292 17.5717 28.5226 17.2128 28.687 16.8965H25.1714C24.7735 16.8964 24.4085 16.7132 24.1704 16.3945C23.9326 16.0759 23.8605 15.6742 23.9731 15.293L24.6812 12.8994V9.21582C24.6812 8.45486 24.8178 7.70908 25.0864 6.99902C25.2077 6.67823 25.5653 6.51629 25.8862 6.6377C26.2069 6.75895 26.3687 7.11683 26.2476 7.4375C26.0322 8.00677 25.9234 8.60541 25.9233 9.21582V12.3682H33.0562C33.3991 12.3683 33.6772 12.6463 33.6772 12.9893C33.677 13.332 33.3989 13.6092 33.0562 13.6094H25.7661L25.1646 15.6455L25.1685 15.6543H36.729L36.7368 15.6484L36.0024 13.165C35.9856 13.1081 35.9771 13.0487 35.9771 12.9893V9.21582C35.977 6.44394 33.7216 4.18945 30.9497 4.18945C29.7151 4.18956 28.5275 4.64181 27.606 5.46387C27.35 5.69213 26.9574 5.66984 26.729 5.41406C26.5007 5.15812 26.5229 4.76548 26.7788 4.53711C27.418 3.96689 28.1601 3.53989 28.9575 3.27246V2.52637C28.9575 1.42803 29.8514 0.534369 30.9497 0.53418ZM30.7251 16.8965C30.1436 16.8974 29.6704 17.3705 29.6704 17.9521C29.6704 18.5342 30.1449 19.0078 30.7271 19.0078H31.1733C31.7554 19.0078 32.229 18.5342 32.229 17.9521C32.229 17.3705 31.7566 16.8973 31.1753 16.8965H30.7251ZM24.5435 0.5C24.8865 0.5 25.1646 0.778045 25.1646 1.12109C25.1645 1.4641 24.8865 1.74219 24.5435 1.74219C22.0233 1.7422 19.9732 3.79227 19.9731 6.3125C19.9731 6.65552 19.6951 6.93355 19.3521 6.93359C19.0091 6.93359 18.731 6.65555 18.731 6.3125C18.731 3.1075 21.3385 0.500016 24.5435 0.5ZM24.5435 3.17676C24.8864 3.17676 25.1646 3.4548 25.1646 3.79785C25.1644 4.1408 24.8864 4.41895 24.5435 4.41895C23.4993 4.41902 22.6499 5.26833 22.6499 6.3125C22.6499 6.65552 22.3718 6.93355 22.0288 6.93359C21.6858 6.93359 21.4077 6.65554 21.4077 6.3125C21.4077 4.58339 22.8144 3.17683 24.5435 3.17676ZM37.3579 3.17676C39.087 3.17685 40.4936 4.58341 40.4937 6.3125C40.4937 6.65555 40.2156 6.93359 39.8726 6.93359C39.5295 6.93357 39.2515 6.65553 39.2515 6.3125C39.2515 5.26835 38.402 4.41904 37.3579 4.41895C37.0149 4.41895 36.7369 4.14081 36.7368 3.79785C36.7368 3.4548 37.0149 3.17676 37.3579 3.17676ZM37.3579 0.5C40.5628 0.500093 43.1705 3.10755 43.1704 6.3125C43.1704 6.65553 42.8923 6.93356 42.5493 6.93359C42.2063 6.93359 41.9282 6.65555 41.9282 6.3125C41.9282 3.7924 39.8781 1.74228 37.3579 1.74219C37.0149 1.74219 36.7369 1.4641 36.7368 1.12109C36.7368 0.778045 37.0149 0.5 37.3579 0.5ZM30.9497 1.77539C30.5362 1.77562 30.1997 2.11292 30.1997 2.52637V2.99316C30.4473 2.96337 30.6977 2.94728 30.9497 2.94727C31.2037 2.94727 31.4544 2.9636 31.7007 2.99316V2.52637C31.7007 2.11269 31.3634 1.77539 30.9497 1.77539Z" fill="#2CB7EA"/>
</svg>
