<svg width="36" height="37" viewBox="0 0 36 37" fill="none" xmlns="http://www.w3.org/2000/svg">
<path d="M29.0996 9.5C30.9213 9.50198 32.3983 10.9782 32.4004 12.7998C32.3987 14.6217 30.9215 16.098 29.0996 16.0996H27.5996V24.9756L29.4727 21.5254C29.7551 21.0015 30.2462 20.6216 30.8242 20.4795C31.4023 20.3374 32.0136 20.4469 32.5068 20.7803C33.3995 21.4176 33.6739 22.6218 33.1455 23.583L30.2764 28.8965C30.1492 29.1353 30.0259 29.3882 29.9023 29.6426C29.496 30.6574 28.8677 31.5682 28.0635 32.3086C27.9158 32.4301 27.7996 32.5858 27.7246 32.7617C27.6547 32.9121 27.6187 33.0763 27.6182 33.2422V35.2998C27.6182 35.9625 27.0807 36.5 26.418 36.5H19.7998C19.1371 36.4999 18.5996 35.9625 18.5996 35.2998V33.5059C18.6089 32.624 18.3799 31.7559 17.9355 30.9941C17.1946 29.7569 16.8018 28.3425 16.7998 26.9004V21.5C16.8047 20.5081 17.6077 19.7053 18.5996 19.7002C18.9096 19.7021 19.2145 19.7846 19.4824 19.9404C19.5546 19.8259 19.6394 19.7194 19.7354 19.624C20.0687 19.2855 20.525 19.0962 21 19.0996C21.3099 19.1015 21.6139 19.185 21.8818 19.3408C21.954 19.2263 22.0388 19.1198 22.1348 19.0244C22.4681 18.6858 22.9252 18.4966 23.4004 18.5C23.6051 18.502 23.808 18.5393 24 18.6104V16.0996H22.5C20.6783 16.0976 19.2022 14.6215 19.2002 12.7998C19.202 10.978 20.6782 9.50165 22.5 9.5H29.0996ZM25.9492 14.2549C25.747 14.1983 25.5302 14.2567 25.3838 14.4072C25.2662 14.5181 25.1997 14.6724 25.2002 14.834V24.5C25.2002 24.8314 24.931 25.0996 24.5996 25.0996C24.2684 25.0994 24 24.8312 24 24.5V20.2998C23.9999 19.9687 23.7315 19.7004 23.4004 19.7002C23.2438 19.6986 23.0928 19.7611 22.9834 19.873C22.8659 19.9839 22.7993 20.1383 22.7998 20.2998V24.5C22.7998 24.8313 22.5315 25.0995 22.2002 25.0996C21.8688 25.0996 21.5996 24.8314 21.5996 24.5V20.9004C21.5996 20.569 21.3314 20.2998 21 20.2998C20.8436 20.2982 20.6934 20.3609 20.584 20.4727C20.4663 20.5835 20.3999 20.7387 20.4004 20.9004V24.5C20.4004 24.8314 20.1312 25.0996 19.7998 25.0996C19.4685 25.0995 19.2002 24.8313 19.2002 24.5V21.5C19.2002 21.1686 18.931 20.9004 18.5996 20.9004C18.4432 20.8989 18.2929 20.9614 18.1836 21.0732C18.0661 21.1841 17.9995 21.3384 18 21.5V26.9004C18.0014 28.1261 18.3349 29.3285 18.9648 30.3799C19.5205 31.3273 19.8089 32.4076 19.7998 33.5059V35.2998H26.4199V33.2432C26.4199 32.9085 26.4921 32.578 26.6309 32.2734C26.7825 31.9229 27.016 31.6138 27.3125 31.373C27.974 30.7391 28.4901 29.969 28.8252 29.1162C28.9553 28.8481 29.0848 28.5824 29.2197 28.3281L32.0879 23.0146C32.3232 22.5974 32.2173 22.0711 31.8389 21.7773C31.6241 21.6296 31.3561 21.5819 31.1035 21.6465C30.857 21.7063 30.6485 21.8693 30.5303 22.0938L28.6562 25.5439C28.3956 26.0279 27.8397 26.273 27.3066 26.1387C26.7737 26.0043 26.4006 25.5252 26.4004 24.9756V14.9004C26.4121 14.6085 26.2273 14.3446 25.9492 14.2549ZM33.5996 0.5C34.9251 0.5 36 1.57491 36 2.90039V28.0996C36 29.4251 34.9251 30.5 33.5996 30.5H31.7822C31.451 30.5 31.1818 30.2316 31.1816 29.9004C31.1816 29.569 31.4509 29.2998 31.7822 29.2998H33.5996C34.2624 29.2998 34.7998 28.7624 34.7998 28.0996V6.5H14.4004C14.0691 6.5 13.8 6.23158 13.7998 5.90039C13.7998 5.56902 14.069 5.2998 14.4004 5.2998H34.7998V2.90039C34.7998 2.23765 34.2624 1.7002 33.5996 1.7002H2.40039C1.73765 1.7002 1.2002 2.23765 1.2002 2.90039V5.2998H10.2002C10.5315 5.29991 10.7998 5.56908 10.7998 5.90039C10.7996 6.23152 10.5313 6.49989 10.2002 6.5H1.2002V28.0996C1.2002 28.7624 1.73765 29.2998 2.40039 29.2998H15.4736C15.805 29.2998 16.0742 29.569 16.0742 29.9004C16.074 30.2316 15.8049 30.5 15.4736 30.5H2.40039C1.07491 30.5 0 29.4251 0 28.0996V2.90039C0 1.57491 1.07491 0.5 2.40039 0.5H33.5996ZM3 24.5C3.33124 24.5 3.60038 24.7684 3.60059 25.0996V26.9004H5.40039C5.73176 26.9004 6 27.1686 6 27.5C6 27.8314 5.73176 28.0996 5.40039 28.0996H3C2.66881 28.0994 2.40039 27.8312 2.40039 27.5V25.0996C2.4006 24.7685 2.66894 24.5002 3 24.5ZM15 8.2998C16.3255 8.29981 17.4004 9.37471 17.4004 10.7002V15.5C17.4004 16.8255 16.3255 17.9004 15 17.9004H14.6299L14.9951 20.8252C15.0259 21.0721 14.9013 21.3129 14.6816 21.4297C14.4619 21.5465 14.1923 21.5152 14.0049 21.3516L10.0586 17.9004H5.40039C4.07491 17.9004 3 16.8255 3 15.5V10.7002C3 9.37471 4.07491 8.2998 5.40039 8.2998H15ZM5.40039 9.5C4.73765 9.5 4.2002 10.0375 4.2002 10.7002V15.5C4.2002 16.1627 4.73765 16.7002 5.40039 16.7002H10.2842C10.4297 16.7 10.5701 16.7529 10.6797 16.8486L13.6094 19.4111L13.3545 17.374C13.3333 17.2036 13.3864 17.0322 13.5 16.9033C13.6139 16.7743 13.7781 16.7002 13.9502 16.7002H15C15.6627 16.7002 16.2002 16.1627 16.2002 15.5V10.7002C16.2002 10.0375 15.6627 9.5 15 9.5H5.40039ZM10.8008 13.7002C11.1319 13.7004 11.4003 13.9686 11.4004 14.2998C11.4004 14.631 11.132 14.9002 10.8008 14.9004H6C5.66881 14.9002 5.40039 14.631 5.40039 14.2998C5.40047 13.9686 5.66886 13.7004 6 13.7002H10.8008ZM14.3994 13.7002C14.7307 13.7002 14.9999 13.9685 15 14.2998C15 14.6312 14.7308 14.9004 14.3994 14.9004H13.1992C12.868 14.9002 12.5996 14.631 12.5996 14.2998C12.5997 13.9686 12.8681 13.7004 13.1992 13.7002H14.3994ZM22.5 10.7002C21.3403 10.7002 20.4005 11.6401 20.4004 12.7998C20.4004 13.9596 21.3402 14.9004 22.5 14.9004H24V14.834C24.0022 14.2795 24.2594 13.7563 24.6973 13.416C25.1351 13.076 25.7054 12.956 26.2432 13.0908C27.0565 13.3116 27.6153 14.0577 27.5996 14.9004H29.0996C30.2594 14.9004 31.2002 13.9596 31.2002 12.7998C31.2001 11.6401 30.2593 10.7002 29.0996 10.7002H22.5ZM7.2002 11.2998C7.53157 11.2998 7.80078 11.569 7.80078 11.9004C7.8006 12.2316 7.53145 12.5 7.2002 12.5H6C5.66892 12.4998 5.40058 12.2315 5.40039 11.9004C5.40039 11.5691 5.66881 11.3 6 11.2998H7.2002ZM14.4004 11.2998C14.7316 11.3 15 11.5692 15 11.9004C14.9998 12.2315 14.7315 12.4998 14.4004 12.5H9.59961C9.26855 12.4998 9.00021 12.2315 9 11.9004C9 11.5691 9.26842 11.3 9.59961 11.2998H14.4004ZM3 2.90039C3.33136 2.90039 3.60057 3.16864 3.60059 3.5C3.60059 3.83137 3.33137 4.09961 3 4.09961C2.66881 4.0994 2.40039 3.83124 2.40039 3.5C2.4004 3.16877 2.66882 2.9006 3 2.90039ZM5.40039 2.90039C5.73158 2.9006 6 3.16876 6 3.5C6 3.83124 5.73158 4.0994 5.40039 4.09961C5.06902 4.09961 4.79981 3.83137 4.7998 3.5C4.7998 3.16863 5.06902 2.90039 5.40039 2.90039ZM7.7998 2.90039C8.13118 2.90039 8.40039 3.16863 8.40039 3.5C8.40039 3.83137 8.13118 4.09961 7.7998 4.09961C7.46852 4.09951 7.2002 3.83131 7.2002 3.5C7.2002 3.16869 7.46852 2.90049 7.7998 2.90039Z" fill="#008744"/>
</svg>
