<svg width="46" height="47" viewBox="0 0 46 47" fill="none" xmlns="http://www.w3.org/2000/svg">
<path d="M40.3651 25.884C40.2707 25.8839 40.1772 25.9025 40.09 25.9386C40.0028 25.9747 39.9235 26.0276 39.8568 26.0944C39.79 26.1611 39.7371 26.2404 39.701 26.3276C39.6649 26.4148 39.6463 26.5083 39.6464 26.6027V32.6756C39.6462 32.8662 39.5705 33.0489 39.4357 33.1837C39.3009 33.3184 39.1182 33.3942 38.9276 33.3943H5.03125C4.84066 33.3942 4.65792 33.3184 4.52316 33.1837C4.38839 33.0489 4.31263 32.8662 4.3125 32.6756V11.0415C4.31263 10.8509 4.3884 10.6682 4.52316 10.5334C4.65792 10.3986 4.84067 10.3229 5.03125 10.3228H20.0745C20.2651 10.3228 20.4479 10.247 20.5827 10.1122C20.7175 9.97745 20.7932 9.79463 20.7932 9.604C20.7932 9.41338 20.7175 9.23056 20.5827 9.09577C20.4479 8.96098 20.2651 8.88525 20.0745 8.88525H5.03125C4.45957 8.88588 3.91148 9.11325 3.50724 9.51749C3.103 9.92173 2.87562 10.4698 2.875 11.0415V32.6756C2.87562 33.2473 3.103 33.7953 3.50724 34.1996C3.91148 34.6038 4.45957 34.8312 5.03125 34.8318H18.9619V37.033C18.9602 37.6114 18.8852 38.1873 18.7388 38.7468C11.0483 39.207 8.27005 41.2113 8.14209 41.3076C7.99518 41.4235 7.89926 41.5921 7.87469 41.7776C7.85013 41.9631 7.89887 42.1509 8.01055 42.3011C8.12223 42.4512 8.28806 42.5519 8.47279 42.5817C8.65752 42.6115 8.84661 42.5681 8.99986 42.4608C9.0328 42.437 12.3753 40.0877 21.9787 40.0877C32.2521 40.1372 34.4735 42.437 35.3837 42.6013C35.5332 42.5985 35.6781 42.5494 35.7986 42.4609C35.9191 42.3724 36.0091 42.2487 36.0565 42.1069C36.1038 41.9651 36.106 41.8121 36.0628 41.6689C36.0196 41.5258 35.9332 41.3996 35.8153 41.3076C35.6874 41.2113 32.9089 39.207 25.2181 38.7469C24.9931 37.4548 24.9185 36.141 24.9955 34.8318H38.9276C39.4993 34.8312 40.0474 34.6038 40.4516 34.1996C40.8559 33.7953 41.0832 33.2473 41.0839 32.6756V26.6027C41.0839 26.5083 41.0654 26.4148 41.0293 26.3276C40.9932 26.2404 40.9402 26.1611 40.8735 26.0944C40.8067 26.0276 40.7275 25.9747 40.6402 25.9386C40.553 25.9025 40.4595 25.8839 40.3651 25.884ZM20.2259 38.6776C20.3387 38.1366 20.3968 37.5857 20.3994 37.033V34.8318H23.558C23.4964 36.1164 23.5544 37.4038 23.7314 38.6776C22.6211 38.6416 21.3361 38.6416 20.2259 38.6776Z" fill="#62C166"/>
<path d="M41.7092 13.6105C41.6887 13.6096 41.669 13.6028 41.6524 13.5908C41.6358 13.5788 41.6231 13.5623 41.6158 13.5431C41.3801 12.2898 40.7552 11.4368 40.4182 10.4913C40.6689 10.1952 40.7987 9.81546 40.7817 9.42785C40.7647 9.04025 40.6021 8.67332 40.3264 8.40031L39.1192 7.19301C38.8464 6.9164 38.4791 6.75318 38.091 6.73612C37.7029 6.71907 37.3227 6.84944 37.0268 7.10106C36.0507 6.60558 35.0294 6.20465 33.977 5.90375C33.9572 5.89612 33.9402 5.88285 33.928 5.8656C33.9158 5.84835 33.9089 5.82788 33.9082 5.80675C33.8759 5.42024 33.6991 5.06013 33.413 4.79824C33.1269 4.53635 32.7526 4.39194 32.3647 4.39382H30.6577C30.2741 4.39183 29.9036 4.53304 29.6187 4.78981C29.3337 5.04659 29.1548 5.40045 29.117 5.78216C29.1177 5.83296 29.0919 5.89306 29.0461 5.90291C28.0104 6.15223 27.02 6.56194 26.1108 7.1172C26.0921 7.12675 26.0709 7.13026 26.0502 7.12724C26.0294 7.12422 26.0101 7.11482 25.995 7.10034C25.6988 6.84972 25.3191 6.71998 24.9315 6.73702C24.5439 6.75407 24.177 6.91664 23.904 7.19229L22.6967 8.40027C22.4211 8.67327 22.2585 9.04017 22.2414 9.42776C22.2244 9.81534 22.3541 10.1951 22.6048 10.4912C22.2696 11.4325 21.6407 12.2966 21.4067 13.5432C21.3993 13.5626 21.3862 13.5794 21.3692 13.5914C21.3522 13.6034 21.332 13.6101 21.3111 13.6105C20.9246 13.6427 20.5644 13.8195 20.3025 14.1056C20.0406 14.3917 19.8962 14.7661 19.8982 15.154V16.861C19.8963 17.2493 20.0411 17.624 20.3036 17.9102C20.5661 18.1964 20.9269 18.3729 21.314 18.4045C21.3344 18.4054 21.3542 18.4123 21.3707 18.4244C21.3872 18.4366 21.3997 18.4533 21.4066 18.4726C21.6438 19.7274 22.2704 20.5826 22.6049 21.5237C22.3542 21.8198 22.2244 22.1996 22.2415 22.5872C22.2585 22.9748 22.421 23.3417 22.6967 23.6147L23.9047 24.8234C24.1779 25.0986 24.5447 25.2607 24.9321 25.2775C25.3195 25.2943 25.699 25.1645 25.995 24.914C26.0103 24.8999 26.0296 24.8907 26.0503 24.8877C26.0709 24.8847 26.092 24.888 26.1108 24.8971C27.0201 25.4532 28.0111 25.8632 29.0475 26.1121C29.0923 26.1208 29.1169 26.1846 29.1177 26.2336C29.1555 26.6151 29.3343 26.9688 29.6191 27.2255C29.904 27.4821 30.2743 27.6232 30.6577 27.6212H32.3647C32.7531 27.623 33.1278 27.478 33.414 27.2154C33.7002 26.9528 33.8767 26.5919 33.9082 26.2048C33.9092 26.1843 33.9163 26.1645 33.9285 26.148C33.9408 26.1315 33.9576 26.119 33.977 26.1121C35.0295 25.8106 36.0507 25.4091 37.0267 24.9131C37.3225 25.1646 37.7024 25.2951 38.0903 25.2784C38.4782 25.2616 38.8455 25.0989 39.1185 24.8227L40.3264 23.6148C40.6022 23.3416 40.7647 22.9745 40.7817 22.5868C40.7986 22.1991 40.6686 21.8192 40.4177 21.5231C40.7539 20.5811 41.3821 19.7192 41.6157 18.4719C41.6231 18.4522 41.6363 18.4353 41.6535 18.4233C41.6707 18.4113 41.6911 18.4047 41.7121 18.4045C42.0986 18.3723 42.4588 18.1955 42.7207 17.9094C42.9826 17.6233 43.1269 17.2489 43.1249 16.861V15.154C43.1268 14.7657 42.982 14.391 42.7195 14.1048C42.457 13.8187 42.0962 13.6421 41.7092 13.6105ZM41.6874 16.861C41.6875 16.8895 41.6768 16.9169 41.6573 16.9376C41.6379 16.9584 41.6112 16.9709 41.5828 16.9726C41.2621 16.9992 40.9577 17.1258 40.7128 17.3346C40.4678 17.5434 40.2946 17.8239 40.2176 18.1364C40.0044 19.0266 39.6524 19.8776 39.1746 20.6583C39.0077 20.9338 38.9315 21.2547 38.957 21.5758C38.9824 21.8968 39.1082 22.2018 39.3164 22.4475C39.3347 22.4688 39.3442 22.4962 39.343 22.5242C39.3418 22.5522 39.33 22.5788 39.3101 22.5984L38.1021 23.8064C38.0821 23.8259 38.0556 23.8372 38.0277 23.8382C37.9998 23.8393 37.9726 23.8299 37.9512 23.812C37.7054 23.6042 37.4006 23.4787 37.0798 23.4533C36.7589 23.4278 36.4381 23.5037 36.1627 23.6702C35.3821 24.1479 34.5313 24.5001 33.6415 24.714C33.3283 24.7907 33.0472 24.9641 32.8381 25.2095C32.629 25.4549 32.5024 25.7599 32.4763 26.0813C32.474 26.1093 32.4612 26.1353 32.4405 26.1543C32.4199 26.1733 32.3928 26.1838 32.3647 26.1838H30.6577C30.6414 26.183 30.6254 26.1789 30.6107 26.1717C30.5961 26.1646 30.583 26.1545 30.5723 26.1422C30.5616 26.1299 30.5535 26.1155 30.5485 26.1C30.5435 26.0844 30.5417 26.068 30.5433 26.0518C30.512 25.7362 30.3837 25.438 30.1759 25.1984C29.9681 24.9588 29.6911 24.7895 29.383 24.714C28.4927 24.5003 27.6414 24.1481 26.8604 23.6702C26.5846 23.5038 26.2636 23.428 25.9425 23.4536C25.6214 23.4792 25.3165 23.6048 25.0705 23.8127C25.0493 23.8308 25.022 23.8402 24.9942 23.8391C24.9663 23.8379 24.9399 23.8262 24.9203 23.8064L23.713 22.5984C23.693 22.5788 23.6813 22.5522 23.6801 22.5242C23.6789 22.4962 23.6884 22.4688 23.7067 22.4475C23.915 22.2017 24.0407 21.8965 24.066 21.5753C24.0913 21.2541 24.015 20.9331 23.8478 20.6576C23.3703 19.8772 23.0184 19.0267 22.8048 18.1371C22.7282 17.8239 22.5549 17.5428 22.3094 17.3338C22.0639 17.1247 21.7588 16.9984 21.4374 16.9726C21.4095 16.9703 21.3835 16.9575 21.3647 16.9368C21.3458 16.9161 21.3354 16.889 21.3357 16.861V15.154C21.3356 15.1256 21.3463 15.0982 21.3658 15.0774C21.3852 15.0567 21.4119 15.0442 21.4402 15.0424C21.7609 15.016 22.0651 14.8895 22.31 14.6808C22.5548 14.4721 22.7279 14.1918 22.8048 13.8794C23.0184 12.9891 23.3703 12.1379 23.8478 11.3567C24.0149 11.0814 24.0913 10.7605 24.0659 10.4394C24.0406 10.1183 23.9149 9.81328 23.7067 9.56755C23.6884 9.54628 23.6789 9.51886 23.6801 9.49084C23.6813 9.46282 23.693 9.4363 23.713 9.41662L24.9203 8.20866C24.9399 8.18877 24.9662 8.17699 24.9941 8.17569C25.0219 8.17439 25.0492 8.18365 25.0706 8.20164C25.3162 8.41026 25.6212 8.53628 25.9425 8.56186C26.2637 8.58743 26.5849 8.51125 26.8604 8.34412C27.6416 7.86663 28.4928 7.51446 29.3831 7.30039C29.6911 7.22478 29.968 7.05551 30.1758 6.81591C30.3836 6.57631 30.512 6.27817 30.5433 5.96256C30.5418 5.94635 30.5435 5.92999 30.5485 5.91448C30.5535 5.89897 30.5616 5.88464 30.5723 5.87236C30.583 5.86008 30.5961 5.85011 30.6108 5.84305C30.6255 5.83599 30.6414 5.832 30.6577 5.83131H32.3647C32.3933 5.83124 32.4208 5.84212 32.4415 5.8617C32.4623 5.88129 32.4747 5.9081 32.4763 5.93659C32.5031 6.25723 32.6298 6.56138 32.8386 6.80618C33.0473 7.05098 33.3277 7.22409 33.6401 7.30109C34.5301 7.51454 35.381 7.86626 36.162 8.34342C36.4373 8.51074 36.7582 8.58716 37.0794 8.56184C37.4005 8.53651 37.7055 8.41074 37.9512 8.20234C37.9725 8.18424 37.9999 8.17484 38.0279 8.17601C38.0559 8.17718 38.0824 8.18883 38.1021 8.20866L39.3101 9.41663C39.33 9.43617 39.3418 9.46251 39.3431 9.49036C39.3444 9.51822 39.3351 9.54554 39.3171 9.56685C39.1085 9.81235 38.9825 10.1173 38.9569 10.4384C38.9313 10.7595 39.0075 11.0806 39.1746 11.356C39.6525 12.1375 40.0047 12.9893 40.2184 13.88C40.2957 14.1927 40.4693 14.4731 40.7146 14.6817C40.96 14.8903 41.2647 15.0164 41.5857 15.0424C41.6136 15.0448 41.6396 15.0576 41.6584 15.0783C41.6773 15.099 41.6877 15.126 41.6874 15.154V16.861Z" fill="#62C166"/>
<path d="M31.5114 9.20044C30.1651 9.20044 28.849 9.59966 27.7296 10.3476C26.6102 11.0956 25.7377 12.1587 25.2225 13.4025C24.7072 14.6464 24.5724 16.0151 24.8351 17.3355C25.0977 18.6559 25.746 19.8688 26.698 20.8208C27.65 21.7728 28.8629 22.4211 30.1834 22.6838C31.5038 22.9464 32.8725 22.8116 34.1163 22.2964C35.3601 21.7812 36.4233 20.9087 37.1712 19.7893C37.9192 18.6699 38.3184 17.3538 38.3184 16.0075C38.3163 14.2028 37.5984 12.4727 36.3223 11.1966C35.0462 9.92047 33.3161 9.2026 31.5114 9.20044ZM31.5114 21.3771C30.4494 21.3771 29.4112 21.0622 28.5282 20.4722C27.6452 19.8821 26.9569 19.0435 26.5505 18.0624C26.1441 17.0812 26.0378 16.0016 26.245 14.96C26.4521 13.9184 26.9635 12.9616 27.7145 12.2107C28.4654 11.4597 29.4222 10.9483 30.4638 10.7411C31.5054 10.5339 32.585 10.6403 33.5662 11.0467C34.5474 11.4531 35.386 12.1413 35.976 13.0243C36.566 13.9074 36.8809 14.9455 36.8809 16.0075C36.8793 17.4311 36.313 18.7959 35.3064 19.8025C34.2998 20.8091 32.935 21.3754 31.5114 21.3771ZM10.2767 24.1559C10.2099 24.0892 10.1307 24.0362 10.0435 24.0001C9.95634 23.9639 9.86288 23.9453 9.76849 23.9453C9.67411 23.9453 9.58065 23.9639 9.49345 24.0001C9.40626 24.0362 9.32704 24.0892 9.26032 24.1559L6.83313 26.5831C6.76638 26.6499 6.71342 26.7291 6.67729 26.8163C6.64116 26.9035 6.62256 26.9969 6.62256 27.0913C6.62256 27.1857 6.64116 27.2792 6.67729 27.3664C6.71342 27.4535 6.76638 27.5328 6.83313 27.5995L9.26032 30.0267C9.32705 30.0934 9.40628 30.1464 9.49347 30.1825C9.58067 30.2186 9.67412 30.2372 9.7685 30.2372C9.86287 30.2372 9.95633 30.2186 10.0435 30.1825C10.1307 30.1464 10.2099 30.0934 10.2767 30.0267C10.3434 29.96 10.3963 29.8807 10.4325 29.7935C10.4686 29.7064 10.4872 29.6129 10.4872 29.5185C10.4872 29.4241 10.4686 29.3307 10.4325 29.2435C10.3963 29.1563 10.3434 29.0771 10.2767 29.0103L8.35767 27.0913L10.2767 25.1723C10.3434 25.1055 10.3964 25.0263 10.4325 24.9391C10.4687 24.8519 10.4872 24.7585 10.4872 24.6641C10.4872 24.5697 10.4687 24.4762 10.4325 24.3891C10.3964 24.3019 10.3434 24.2226 10.2767 24.1559ZM17.7548 29.0103C17.62 29.1451 17.5443 29.3278 17.5443 29.5184C17.5443 29.709 17.62 29.8918 17.7548 30.0266C17.8896 30.1614 18.0723 30.2371 18.2629 30.2371C18.4535 30.2371 18.6363 30.1614 18.7711 30.0266L21.1983 27.5994C21.2651 27.5327 21.3181 27.4535 21.3542 27.3663C21.3903 27.2791 21.4089 27.1856 21.4089 27.0912C21.4089 26.9969 21.3903 26.9034 21.3542 26.8162C21.3181 26.729 21.2651 26.6498 21.1983 26.5831L18.7711 24.1559C18.7044 24.0891 18.6252 24.0362 18.538 24.0001C18.4508 23.9639 18.3573 23.9454 18.2629 23.9454C18.1686 23.9454 18.0751 23.9639 17.9879 24.0001C17.9007 24.0362 17.8215 24.0891 17.7548 24.1559C17.688 24.2226 17.6351 24.3018 17.599 24.389C17.5629 24.4762 17.5443 24.5697 17.5443 24.664C17.5443 24.7584 17.5629 24.8519 17.599 24.9391C17.6351 25.0262 17.688 25.1055 17.7548 25.1722L19.6738 27.0912L17.7548 29.0103ZM13.9252 24.49L12.7123 29.3444C12.6894 29.4359 12.6848 29.5311 12.6987 29.6244C12.7126 29.7177 12.7448 29.8073 12.7933 29.8882C12.8419 29.9691 12.9059 30.0396 12.9817 30.0958C13.0575 30.1519 13.1437 30.1926 13.2352 30.2155C13.3267 30.2383 13.4219 30.2429 13.5152 30.229C13.6085 30.2151 13.6981 30.183 13.779 30.1344C13.8599 30.0858 13.9304 30.0218 13.9866 29.946C14.0427 29.8702 14.0834 29.7841 14.1063 29.6925L15.3191 24.8382C15.3613 24.6548 15.3298 24.4621 15.2314 24.3016C15.133 24.1412 14.9756 24.0257 14.793 23.9801C14.6104 23.9345 14.4172 23.9624 14.2549 24.0577C14.0926 24.1531 13.9742 24.3083 13.9252 24.49Z" fill="#62C166"/>
</svg>
