<svg width="42" height="43" viewBox="0 0 42 43" fill="none" xmlns="http://www.w3.org/2000/svg">
<path d="M37.3028 40.6132H4.69702C4.52297 40.6132 4.35605 40.5441 4.23298 40.421C4.10991 40.2979 4.04077 40.131 4.04077 39.957V17.1826C4.04077 17.0086 4.10991 16.8416 4.23298 16.7186C4.35605 16.5955 4.52297 16.5264 4.69702 16.5264C4.87107 16.5264 5.03799 16.5955 5.16106 16.7186C5.28413 16.8416 5.35327 17.0086 5.35327 17.1826V39.3007H36.6466V17.1826C36.6466 17.0086 36.7157 16.8416 36.8388 16.7186C36.9618 16.5955 37.1288 16.5264 37.3028 16.5264C37.4769 16.5264 37.6438 16.5955 37.7668 16.7186C37.8899 16.8416 37.9591 17.0086 37.9591 17.1826V39.957C37.9591 40.131 37.8899 40.2979 37.7668 40.421C37.6438 40.5441 37.4769 40.6132 37.3028 40.6132Z" fill="#2CB7EA"/>
<path d="M20.9999 31.9794C20.8415 31.9789 20.6887 31.9205 20.5701 31.8154L4.26557 17.6789C4.20045 17.6224 4.1471 17.5536 4.10856 17.4765C4.07002 17.3994 4.04704 17.3154 4.04095 17.2294C4.03485 17.1434 4.04576 17.0571 4.07304 16.9753C4.10032 16.8935 4.14344 16.8179 4.19994 16.7528C4.25645 16.6877 4.32522 16.6343 4.40234 16.5958C4.47946 16.5572 4.56342 16.5343 4.64942 16.5282C4.73542 16.5221 4.82178 16.533 4.90356 16.5603C4.98535 16.5875 5.06096 16.6307 5.12608 16.6872L20.9999 30.4545L36.8722 16.6872C37.0037 16.5728 37.1752 16.5154 37.3491 16.5276C37.5229 16.5397 37.6848 16.6205 37.7991 16.752C37.9135 16.8835 37.9709 17.055 37.9587 17.2289C37.9465 17.4027 37.8658 17.5646 37.7343 17.6789L21.4298 31.8187C21.3108 31.9226 21.158 31.9798 20.9999 31.9794ZM26.4821 8.45697C26.3236 8.45647 26.1708 8.39813 26.0522 8.29291L20.9999 3.91162L15.9476 8.29291C15.8154 8.40064 15.6465 8.45268 15.4766 8.438C15.3067 8.42331 15.1491 8.34306 15.0374 8.21423C14.9256 8.08541 14.8684 7.91814 14.8778 7.74785C14.8873 7.57757 14.9626 7.41765 15.088 7.30197L20.5701 2.54416C20.6894 2.44073 20.842 2.38379 20.9999 2.38379C21.1579 2.38379 21.3105 2.44073 21.4298 2.54416L26.9119 7.30197C27.0116 7.3899 27.0823 7.50604 27.1145 7.63501C27.1468 7.76398 27.1391 7.8997 27.0925 8.02421C27.0459 8.14872 26.9626 8.25613 26.8536 8.33224C26.7446 8.40835 26.615 8.44955 26.4821 8.45041V8.45697Z" fill="#2CB7EA"/>
<path d="M4.69711 17.8389C4.56417 17.8381 4.43463 17.7968 4.32563 17.7207C4.21663 17.6446 4.13331 17.5372 4.08671 17.4127C4.04011 17.2882 4.03242 17.1525 4.06466 17.0235C4.09691 16.8945 4.16756 16.7784 4.26727 16.6905L9.28512 12.3387C9.41733 12.231 9.58628 12.1789 9.75619 12.1936C9.92611 12.2083 10.0836 12.2886 10.1954 12.4174C10.3071 12.5462 10.3644 12.7135 10.3549 12.8838C10.3455 13.054 10.2701 13.214 10.1448 13.3296L5.12695 17.6773C5.00808 17.7816 4.85527 17.8391 4.69711 17.8389ZM37.3029 17.8389C37.1444 17.8384 36.9916 17.7801 36.8731 17.6748L31.8552 13.3272C31.7299 13.2115 31.6545 13.0516 31.6451 12.8813C31.6356 12.711 31.6929 12.5437 31.8046 12.4149C31.9164 12.2861 32.0739 12.2058 32.2438 12.1912C32.4137 12.1765 32.5827 12.2285 32.7149 12.3362L37.7344 16.6872C37.8341 16.7751 37.9047 16.8913 37.937 17.0202C37.9692 17.1492 37.9615 17.2849 37.9149 17.4094C37.8683 17.5339 37.785 17.6413 37.676 17.7175C37.567 17.7936 37.4375 17.8348 37.3045 17.8356L37.3029 17.8389ZM37.3029 40.6132H4.69711C4.55746 40.6133 4.42144 40.5687 4.30883 40.4861C4.19623 40.4035 4.11292 40.2871 4.07101 40.1539C4.02911 40.0207 4.03079 39.8776 4.07583 39.7454C4.12086 39.6132 4.20689 39.4988 4.32141 39.4189L18.8672 29.2601C19.0099 29.1605 19.1864 29.1216 19.3577 29.1521C19.5291 29.1825 19.6814 29.2798 19.781 29.4225C19.8807 29.5653 19.9195 29.7417 19.8891 29.9131C19.8586 30.0845 19.7613 30.2367 19.6186 30.3364L6.78317 39.3007H35.2168L22.383 30.3364C22.309 30.2886 22.2453 30.2264 22.1958 30.1534C22.1462 30.0805 22.1119 29.9984 22.0949 29.9119C22.0778 29.8254 22.0784 29.7363 22.0965 29.6501C22.1146 29.5638 22.1499 29.4821 22.2002 29.4097C22.2506 29.3374 22.3151 29.276 22.3897 29.2291C22.4644 29.1822 22.5477 29.1509 22.6348 29.1369C22.7218 29.1229 22.8108 29.1266 22.8963 29.1478C22.9819 29.169 23.0623 29.2072 23.1328 29.2601L37.677 39.4189C37.7914 39.4987 37.8773 39.613 37.9224 39.745C37.9675 39.877 37.9693 40.02 37.9276 40.1531C37.8859 40.2863 37.8029 40.4027 37.6905 40.4854C37.5782 40.5681 37.4424 40.6129 37.3029 40.6132Z" fill="#2CB7EA"/>
<path d="M32.2849 22.1915C32.1109 22.1915 31.944 22.1224 31.8209 21.9993C31.6978 21.8762 31.6287 21.7093 31.6287 21.5353V8.45703H10.3711V21.5353C10.3711 21.7093 10.302 21.8762 10.1789 21.9993C10.0558 22.1224 9.88889 22.1915 9.71484 22.1915C9.5408 22.1915 9.37388 22.1224 9.25081 21.9993C9.12773 21.8762 9.05859 21.7093 9.05859 21.5353V7.80078C9.05859 7.62673 9.12773 7.45981 9.25081 7.33674C9.37388 7.21367 9.5408 7.14453 9.71484 7.14453H32.2849C32.459 7.14453 32.6259 7.21367 32.749 7.33674C32.872 7.45981 32.9412 7.62673 32.9412 7.80078V21.5353C32.9412 21.7093 32.872 21.8762 32.749 21.9993C32.6259 22.1224 32.459 22.1915 32.2849 22.1915Z" fill="#2CB7EA"/>
<path d="M20.9944 25.2561C16.9978 25.2561 13.7461 21.9059 13.7461 17.7913C13.7461 13.6766 16.9978 10.3264 20.9944 10.3264C24.9909 10.3264 28.2427 13.6766 28.2427 17.7913C28.2427 17.9653 28.1735 18.1322 28.0504 18.2553C27.9274 18.3784 27.7605 18.4475 27.5864 18.4475C27.4124 18.4475 27.2454 18.3784 27.1224 18.2553C26.9993 18.1322 26.9302 17.9653 26.9302 17.7913C26.9302 14.3976 24.2674 11.6389 20.9944 11.6389C17.7213 11.6389 15.0586 14.4001 15.0586 17.7913C15.0586 21.1824 17.7213 23.9436 20.9944 23.9436C21.7788 23.9449 22.5551 23.7846 23.2748 23.4727C23.3541 23.438 23.4394 23.4193 23.5258 23.4177C23.6123 23.416 23.6983 23.4315 23.7787 23.4632C23.8592 23.4949 23.9327 23.5421 23.9948 23.6023C24.0569 23.6625 24.1066 23.7343 24.1408 23.8137C24.1751 23.8932 24.1934 23.9786 24.1945 24.065C24.1957 24.1515 24.1797 24.2374 24.1476 24.3177C24.1154 24.398 24.0677 24.4711 24.0072 24.5329C23.9467 24.5947 23.8745 24.644 23.7949 24.6778C22.911 25.0608 21.9577 25.2577 20.9944 25.2561Z" fill="#2CB7EA"/>
<path d="M20.1216 22.0603C18.3087 22.0603 16.8337 20.1818 16.8337 17.8767C16.8337 15.5716 18.3103 13.6931 20.1216 13.6931C21.9328 13.6931 23.4102 15.5716 23.4102 17.8767C23.4102 18.0121 23.4053 18.1458 23.3954 18.2737C23.3838 18.4188 23.3244 18.5558 23.2264 18.6634C23.2891 18.7973 23.3047 18.9485 23.2707 19.0924C22.8516 20.8659 21.5858 22.0603 20.1216 22.0603ZM20.1216 14.9991C19.0551 14.9991 18.1462 16.3157 18.1462 17.8701C18.1462 19.4246 19.0486 20.7412 20.1216 20.7412C20.9517 20.7412 21.7212 19.9349 21.9927 18.7815C22.0186 18.6731 22.0713 18.573 22.1461 18.4903C22.0982 18.3879 22.0778 18.2748 22.087 18.1622C22.0944 18.0678 22.0977 17.9719 22.0977 17.8693C22.0977 16.3157 21.1929 14.9991 20.1216 14.9991Z" fill="#2CB7EA"/>
<path d="M24.6775 21.632C24.0908 21.6406 23.5127 21.4898 23.0049 21.1956C22.2667 20.7518 21.8786 20.016 21.9336 19.1768C21.9336 19.1563 21.9377 19.1358 21.941 19.1161L22.8048 13.7398C22.8323 13.5679 22.927 13.414 23.068 13.3119C23.209 13.2099 23.3847 13.168 23.5566 13.1955C23.7285 13.223 23.8824 13.3177 23.9844 13.4587C24.0865 13.5997 24.1284 13.7755 24.1009 13.9473L23.2461 19.2892C23.2322 19.6288 23.3765 19.8848 23.6874 20.0726C24.2928 20.4376 25.2747 20.3917 25.9712 19.9643C26.4634 19.6649 27.0245 19.0521 26.9367 17.8364C26.9304 17.7503 26.9412 17.6637 26.9684 17.5817C26.9956 17.4997 27.0387 17.4238 27.0953 17.3585C27.1518 17.2931 27.2206 17.2395 27.2978 17.2008C27.3751 17.162 27.4592 17.1389 27.5454 17.1326C27.6315 17.1264 27.7181 17.1371 27.8001 17.1644C27.8821 17.1916 27.958 17.2347 28.0233 17.2912C28.0887 17.3477 28.1423 17.4165 28.181 17.4938C28.2198 17.571 28.2429 17.6551 28.2492 17.7413C28.355 19.2039 27.7906 20.3909 26.6602 21.0832C26.0621 21.4443 25.3762 21.6341 24.6775 21.632Z" fill="#2CB7EA"/>
</svg>
