<svg width="36" height="37" viewBox="0 0 36 37" fill="none" xmlns="http://www.w3.org/2000/svg">
<path fill-rule="evenodd" clip-rule="evenodd" d="M16.1759 3.65764L6.10236 9.87413C5.61256 10.1765 5.20821 10.5991 4.92776 11.1018C4.64731 11.6045 4.50005 12.1706 4.5 12.7462V24.8638C4.5 26.0705 5.1444 27.1858 6.1902 27.7881L16.2238 33.569C16.741 33.867 17.328 34.0226 17.925 34.0197C18.5219 34.0169 19.1074 33.8557 19.6218 33.5528L29.8382 27.5343C30.3443 27.236 30.7638 26.8109 31.0552 26.3009C31.3467 25.7909 31.5 25.2136 31.5 24.6262V12.5248C31.5 11.9374 31.3467 11.3602 31.0552 10.8501C30.7638 10.3401 30.3443 9.91497 29.8382 9.61672L19.6614 3.62164C19.1322 3.30982 18.5279 3.14838 17.9136 3.15472C17.2994 3.16107 16.6986 3.33496 16.1759 3.65764ZM7.28424 11.789L17.3574 5.57212C17.5317 5.4646 17.732 5.40667 17.9368 5.40457C18.1416 5.40248 18.343 5.4563 18.5195 5.56025L28.696 11.5553C28.8647 11.6547 29.0046 11.7964 29.1018 11.9665C29.1989 12.1365 29.25 12.329 29.25 12.5248V24.6262C29.25 24.822 29.1989 25.0145 29.1018 25.1845C29.0046 25.3546 28.8647 25.4963 28.696 25.5957L18.4799 31.6142C18.3084 31.7152 18.1132 31.7689 17.9141 31.7698C17.7151 31.7708 17.5194 31.7189 17.347 31.6196L7.3134 25.8387C7.14217 25.74 6.99996 25.5979 6.90106 25.4267C6.80216 25.2556 6.75006 25.0615 6.75 24.8638V12.7462C6.75 12.356 6.95232 11.9938 7.28424 11.789ZM18 25.8617C18.2226 25.8617 18.4402 25.9276 18.6254 26.0512C18.8105 26.1749 18.9548 26.3506 19.04 26.5563C19.1252 26.7619 19.1475 26.9882 19.1041 27.2065C19.0607 27.4249 18.9535 27.6254 18.7961 27.7828C18.6387 27.9402 18.4382 28.0474 18.2198 28.0908C18.0015 28.1343 17.7752 28.1119 17.5695 28.0267C17.3639 27.9415 17.1881 27.7972 17.0645 27.6121C16.9409 27.427 16.8749 27.2093 16.875 26.9867C16.875 26.3661 17.379 25.8617 18 25.8617ZM19.125 22.4867V10.1729C19.1176 9.87948 18.9958 9.60056 18.7856 9.39564C18.5755 9.19072 18.2935 9.07603 18 9.07603C17.7065 9.07603 17.4245 9.19072 17.2144 9.39564C17.0042 9.60056 16.8824 9.87948 16.875 10.1729V22.4867C16.8824 22.7802 17.0042 23.0591 17.2144 23.264C17.4245 23.4689 17.7065 23.5836 18 23.5836C18.2935 23.5836 18.5755 23.4689 18.7856 23.264C18.9958 23.0591 19.1176 22.7802 19.125 22.4867Z" fill="#0356FF"/>
</svg>
