<svg width="38" height="31" viewBox="0 0 38 31" fill="none" xmlns="http://www.w3.org/2000/svg">
<path d="M36.0889 0.500977C37.1011 0.500977 37.9272 1.32505 37.9258 2.33887V24.4717C37.9256 25.8159 36.8324 26.909 35.4883 26.9092H26.2861V29.2344H29.332C29.68 29.2344 29.9648 29.5176 29.9648 29.8672C29.9646 30.2165 29.6814 30.499 29.332 30.499H8.77344C8.42562 30.499 8.14088 30.2165 8.14062 29.8672C8.14062 29.5176 8.42389 29.2344 8.77344 29.2344H11.7139V26.9092H2.51172C1.16742 26.9092 0.0744329 25.816 0.0742188 24.4717V2.33887C0.0743337 1.32505 0.898322 0.500977 1.91211 0.500977H36.0889ZM13.0996 29.2324H24.9033V26.9072H13.0996V29.2324ZM1.35352 24.4717C1.35373 25.1105 1.87285 25.6309 2.51172 25.6309H35.4893C36.1281 25.6309 36.6472 25.109 36.6475 24.4717V23.3115H1.35352V24.4717ZM3.75195 22.0342H34.248V4.17676H3.75195V22.0342ZM1.91406 1.7793C1.60412 1.7793 1.35363 2.03052 1.35352 2.33887V22.0322H2.47168V3.56836C2.47168 3.19981 2.77405 2.89942 3.14258 2.89941H34.8584C35.2285 2.89941 35.5293 3.19981 35.5293 3.56836V22.0342H36.6504V2.33887C36.6503 2.03059 36.3991 1.77941 36.0908 1.7793H32.5381C32.5286 1.77931 32.5206 1.78223 32.5127 1.78223H32.2852C32.2788 1.78223 32.272 1.7793 32.2656 1.7793H31.0449C31.0387 1.77933 31.0326 1.78213 31.0264 1.78223H30.7969C30.7921 1.78223 30.7899 1.7793 30.7852 1.7793H1.91406ZM11.457 19.9473C11.8066 19.9473 12.0918 20.2305 12.0918 20.5801C12.0918 20.9295 11.8084 21.2127 11.459 21.2129H5.2334C4.88544 21.2129 4.6006 20.9296 4.60059 20.5801C4.60059 20.2305 4.88385 19.9473 5.2334 19.9473H11.457ZM32.873 19.9473C33.221 19.9473 33.5058 20.2305 33.5059 20.5801C33.5059 20.9297 33.2226 21.2129 32.873 21.2129H26.6484C26.3005 21.2129 26.0156 20.9297 26.0156 20.5801C26.0156 20.2305 26.2989 19.9473 26.6484 19.9473H32.873ZM32.873 17.752C33.221 17.752 33.5059 18.0352 33.5059 18.3848C33.5058 18.7343 33.2225 19.0176 32.873 19.0176H28.2295C27.8816 19.0176 27.5968 18.7343 27.5967 18.3848C27.5967 18.0352 27.8799 17.752 28.2295 17.752H32.873ZM9.87695 17.75C10.2248 17.75 10.5096 18.0333 10.5098 18.3828C10.5098 18.7324 10.2265 19.0156 9.87695 19.0156H5.2334C4.88385 19.0156 4.60059 18.7324 4.60059 18.3828C4.60071 18.0333 4.88392 17.75 5.2334 17.75H9.87695ZM20.1953 6.54785C20.3061 6.21612 20.6662 6.03887 20.998 6.15234C21.3286 6.26465 21.5059 6.62449 21.3936 6.95508L17.7686 17.5908C17.6783 17.8548 17.4314 18.0195 17.1689 18.0195C17.101 18.0195 17.0328 18.01 16.9648 17.9863C16.6344 17.8739 16.4571 17.5141 16.5693 17.1836L20.1953 6.54785ZM15.2236 7.09668C15.4941 6.87696 15.8909 6.92336 16.1123 7.19531C16.3306 7.46896 16.2863 7.8657 16.0127 8.08398L11.0244 12.0752L16.0127 16.0645C16.2847 16.2827 16.3295 16.6795 16.1113 16.9531C15.9864 17.1097 15.8022 17.1904 15.6172 17.1904C15.4781 17.1903 15.3386 17.146 15.2217 17.0527L9.61523 12.5684C9.46662 12.4482 9.37801 12.2665 9.37793 12.0752C9.37793 11.8838 9.46497 11.7013 9.61523 11.5811L15.2236 7.09668ZM21.8916 7.19336C22.1098 6.92294 22.5066 6.87759 22.7803 7.0957L28.3867 11.5811C28.5353 11.7013 28.623 11.8823 28.623 12.0752C28.623 12.2679 28.5351 12.4498 28.3867 12.5684L22.7803 17.0527C22.6634 17.1458 22.5247 17.1903 22.3857 17.1904C22.2007 17.1904 22.0166 17.1097 21.8916 16.9531C21.6734 16.6811 21.7166 16.2827 21.9902 16.0645L26.9766 12.0732L21.9902 8.08203C21.7182 7.86374 21.6733 7.46541 21.8916 7.19336Z" fill="#FF59C2"/>
</svg>
