<svg width="38" height="39" viewBox="0 0 38 39" fill="none" xmlns="http://www.w3.org/2000/svg">
<g clip-path="url(#clip0_764_196)">
<path fill-rule="evenodd" clip-rule="evenodd" d="M4.11426 3.8455C3.34953 3.8455 2.72734 4.47098 2.72734 5.23985V33.7671C2.72734 34.5319 3.34953 35.1543 4.11426 35.1543L33.886 35.1543C34.6508 35.1543 35.273 34.5319 35.273 33.7671V5.23222C35.273 4.46758 34.6507 3.84546 33.886 3.84546L4.11426 3.8455ZM33.886 35.9355H4.11426C2.91886 35.9355 1.94629 34.9625 1.94629 33.7673V5.2398C1.94629 4.04031 2.91886 3.0645 4.11426 3.0645L33.886 3.06445C35.0814 3.06445 36.054 4.037 36.054 5.23238V33.7673C36.054 34.9626 35.0814 35.9355 33.886 35.9355Z" fill="#FF59C2"/>
<path fill-rule="evenodd" clip-rule="evenodd" d="M35.6632 9.08894H2.33657C2.12088 9.08894 1.94604 8.91414 1.94604 8.69848C1.94604 8.48281 2.12088 8.30795 2.33657 8.30795L35.6632 8.30789C35.8789 8.30789 36.0537 8.48281 36.0537 8.69848C36.0537 8.91412 35.8788 9.089 35.6632 9.08894ZM7.82451 6.46733H4.83992C4.62426 6.46733 4.44938 6.29247 4.44938 6.0768C4.44938 5.8611 4.62424 5.68628 4.83992 5.68628H7.82451C8.04017 5.68628 8.21504 5.86114 8.21504 6.0768C8.21504 6.29243 8.04017 6.46733 7.82451 6.46733ZM12.4161 6.46733H9.4316C9.21594 6.46733 9.04108 6.29247 9.04108 6.0768C9.04108 5.8611 9.21592 5.68628 9.4316 5.68628H12.4161C12.6318 5.68628 12.8067 5.86114 12.8067 6.0768C12.8067 6.29243 12.6318 6.46733 12.4161 6.46733ZM17.0078 6.46733H14.0232C13.8075 6.46733 13.6327 6.29247 13.6327 6.0768C13.6327 5.8611 13.8075 5.68628 14.0232 5.68628H17.0078C17.2235 5.68628 17.3983 5.86114 17.3983 6.0768C17.3983 6.29243 17.2235 6.46733 17.0078 6.46733ZM6.56352 14.2104H31.4439V11.444H6.56352V14.2104ZM31.8344 14.9915H6.17299C5.95731 14.9915 5.78242 14.8166 5.78242 14.6009L5.78245 11.0536C5.78245 10.8378 5.95731 10.663 6.17299 10.663L31.8344 10.663C32.05 10.663 32.2249 10.8378 32.2249 11.0536L32.2249 14.6009C32.2249 14.8167 32.05 14.9915 31.8344 14.9915ZM6.56352 20.4091H31.4439V17.6428H6.56352V20.4091ZM31.8344 21.1902H6.17299C5.95731 21.1902 5.78242 21.0154 5.78242 20.7997L5.78245 17.2522C5.78245 17.0366 5.95731 16.8618 6.17299 16.8618L31.8344 16.8617C32.05 16.8617 32.2249 17.0366 32.2249 17.2523L32.2249 20.7997C32.2249 21.0153 32.05 21.1902 31.8344 21.1902ZM6.56352 26.6078H31.4439V23.8414H6.56352V26.6078ZM31.8344 27.3889H6.17299C5.95731 27.3889 5.78242 27.214 5.78242 26.9983L5.78245 23.4509C5.78245 23.2352 5.95731 23.0604 6.17299 23.0604H31.8344C32.05 23.0604 32.2249 23.2352 32.2249 23.4509L32.2249 26.9983C32.2249 27.214 32.05 27.3889 31.8344 27.3889ZM13.2456 30.0404C12.92 30.0404 12.615 30.1672 12.387 30.397C12.163 30.6227 12.0412 30.9218 12.0439 31.2391L12.0439 31.5977C12.0439 32.2601 12.583 32.7992 13.2456 32.7992L24.7618 32.7991C25.4244 32.7991 25.9635 32.2602 25.9635 31.5977V31.2418C25.9635 30.5793 25.4244 30.0404 24.7618 30.0404L13.2456 30.0404ZM13.2456 33.5802C12.1523 33.5802 11.2629 32.6907 11.2629 31.5977V31.2418C11.2584 30.7184 11.4607 30.2221 11.8323 29.8472C12.2082 29.468 12.7101 29.2593 13.2456 29.2593L24.7618 29.2592C25.855 29.2592 26.7445 30.1489 26.7445 31.2418V31.5977C26.7445 32.6906 25.855 33.5802 24.7618 33.5802L13.2456 33.5802Z" fill="#FF59C2"/>
</g>
<defs>
<clipPath id="clip0_764_196">
<rect width="38" height="38" fill="white" transform="translate(0 0.5)"/>
</clipPath>
</defs>
</svg>
