<svg width="36" height="37" viewBox="0 0 36 37" fill="none" xmlns="http://www.w3.org/2000/svg">
<path d="M22.355 0.499756C22.4313 0.499696 22.5072 0.51456 22.5776 0.543701C22.6481 0.572841 22.7122 0.615808 22.7661 0.669678L28.5718 6.47632C28.6257 6.53028 28.6686 6.59431 28.6978 6.66479C28.7268 6.73515 28.7417 6.81036 28.7417 6.88647V10.6609H32.1167C32.7612 10.662 33.3797 10.9181 33.8354 11.3738C34.2912 11.8295 34.5472 12.448 34.5483 13.0925V30.9832H35.4194C35.5733 30.9832 35.7207 31.0443 35.8296 31.1531C35.9384 31.2619 35.9994 31.4093 35.9995 31.5632V33.6072C35.97 34.4012 35.6274 35.1512 35.0464 35.6931C34.4653 36.235 33.693 36.5247 32.8989 36.4988H3.10107C2.30716 36.5246 1.53555 36.2348 0.95459 35.6931C0.373527 35.1512 0.0300054 34.4012 0.000488281 33.6072V31.5632C0.000563953 31.4093 0.0625646 31.2619 0.171387 31.1531C0.280259 31.0443 0.427632 30.9832 0.581543 30.9832H1.45264V13.0925C1.45379 12.448 1.7098 11.8295 2.16553 11.3738C2.62125 10.9181 3.23981 10.662 3.88428 10.6609H7.2583V2.33569C7.25915 1.84914 7.45338 1.38292 7.79736 1.03882C8.14156 0.694622 8.60845 0.500524 9.09521 0.499756H22.355ZM1.1626 32.1443V33.6072C1.19254 34.093 1.41271 34.5478 1.77588 34.8718C2.13894 35.1956 2.61525 35.363 3.10107 35.3376H32.8989C33.3849 35.3631 33.8619 35.1958 34.2251 34.8718C34.5883 34.5478 34.8084 34.093 34.8384 33.6072V32.1443H22.3042L21.6772 33.2927C21.6274 33.3843 21.5539 33.4611 21.4644 33.5144C21.3747 33.5678 21.2718 33.5953 21.1675 33.5955H14.8335C14.7292 33.5953 14.6262 33.5677 14.5366 33.5144C14.4471 33.4611 14.3736 33.3843 14.3237 33.2927L13.6968 32.1443H1.1626ZM5.08154 14.2898V30.9832H14.0405C14.145 30.983 14.2475 31.0109 14.3374 31.0642C14.4272 31.1175 14.5013 31.1942 14.5513 31.2859L15.1782 32.4343H20.8179L21.4448 31.2859C21.4948 31.1941 21.5688 31.1176 21.6587 31.0642C21.7485 31.0109 21.8511 30.9831 21.9556 30.9832H30.9194V14.2898H28.7417V25.7576C28.7408 26.2443 28.5477 26.7111 28.2036 27.0554C27.8595 27.3998 27.3927 27.5933 26.9058 27.5945H9.09521C8.60835 27.5933 8.14151 27.3998 7.79736 27.0554C7.45329 26.7111 7.25916 26.2443 7.2583 25.7576V14.2898H5.08154ZM3.88428 11.822C3.5472 11.8228 3.22394 11.9575 2.98584 12.196C2.74773 12.4347 2.61377 12.7583 2.61377 13.0955V30.9832H3.92041V13.7087C3.92046 13.6327 3.93525 13.5574 3.96436 13.4871C3.99353 13.4166 4.03642 13.3525 4.09033 13.2986C4.14424 13.2447 4.20839 13.2018 4.27881 13.1726C4.3491 13.1435 4.42442 13.1287 4.50049 13.1287H7.2583V11.822H3.88428ZM28.7417 11.822V13.1287H31.5005C31.6543 13.1288 31.8018 13.1898 31.9106 13.2986C32.0194 13.4074 32.0805 13.5549 32.0806 13.7087V30.9832H33.3872V13.0925C33.3864 12.7559 33.2522 12.4331 33.0142 12.1951C32.7761 11.957 32.4533 11.8228 32.1167 11.822H28.7417ZM9.09521 1.66089C9.00646 1.66089 8.9184 1.67864 8.83643 1.71265C8.75434 1.74675 8.67942 1.79712 8.6167 1.86011C8.55406 1.92306 8.50393 1.99768 8.47021 2.07983C8.43656 2.16191 8.42006 2.24991 8.42041 2.33862V25.7576C8.42051 25.9364 8.4913 26.1077 8.61768 26.2341C8.74426 26.3607 8.9162 26.4324 9.09521 26.4324H26.9058C27.0848 26.4324 27.2567 26.3607 27.3833 26.2341C27.5096 26.1077 27.5805 25.9363 27.5806 25.7576V7.46753H22.355C22.2012 7.46748 22.0536 7.40627 21.9448 7.29761C21.8359 7.18872 21.7749 7.04047 21.7749 6.88647V1.66089H9.09521ZM14.6411 18.8865C14.7953 18.8863 14.9431 18.9474 15.0522 19.0564C15.1614 19.1653 15.223 19.3133 15.2231 19.4675C15.2232 19.6216 15.1621 19.7696 15.0532 19.8787L13.1187 21.8132C13.0647 21.8674 12.9998 21.9108 12.9292 21.9402C12.8587 21.9694 12.7829 21.9841 12.7065 21.9841C12.6302 21.9841 12.5544 21.9695 12.4839 21.9402C12.4133 21.9108 12.3494 21.8674 12.2954 21.8132L11.3267 20.8455C11.2177 20.7363 11.1566 20.5876 11.1567 20.4333C11.157 20.2794 11.2188 20.132 11.3276 20.0232C11.4367 19.9143 11.5847 19.8532 11.7388 19.8533C11.8929 19.8534 12.041 19.9142 12.1499 20.0232L12.7075 20.5828L14.23 19.0564C14.3389 18.9473 14.487 18.8866 14.6411 18.8865ZM24.2612 19.8533C24.4152 19.8533 24.5635 19.9153 24.6724 20.0242C24.781 20.133 24.8423 20.2806 24.8423 20.4343C24.8423 20.5881 24.781 20.7356 24.6724 20.8445C24.5635 20.9534 24.4152 21.0154 24.2612 21.0154H17.5464C17.3924 21.0154 17.2451 20.9533 17.1362 20.8445C17.0274 20.7356 16.9653 20.5883 16.9653 20.4343C16.9653 20.2803 17.0273 20.1331 17.1362 20.0242C17.2451 19.9153 17.3924 19.8533 17.5464 19.8533H24.2612ZM14.6411 14.531C14.7952 14.5309 14.9431 14.5922 15.0522 14.7009C15.1613 14.8098 15.2229 14.9579 15.2231 15.1121C15.2233 15.2662 15.162 15.4141 15.0532 15.5232L13.1187 17.4587C13.0647 17.5129 12.9998 17.5554 12.9292 17.5847C12.8586 17.614 12.783 17.6296 12.7065 17.6296C12.6301 17.6296 12.5544 17.614 12.4839 17.5847C12.4134 17.5554 12.3493 17.5128 12.2954 17.4587L11.3267 16.49C11.2729 16.436 11.2298 16.3719 11.2007 16.3015C11.1716 16.231 11.1567 16.1551 11.1567 16.0789C11.1568 16.0026 11.1724 15.9267 11.2017 15.8562C11.2309 15.7858 11.2737 15.7216 11.3276 15.6677C11.3816 15.6139 11.4457 15.5709 11.5161 15.5417C11.5866 15.5126 11.6625 15.4978 11.7388 15.4978C11.8151 15.4979 11.8909 15.5135 11.9614 15.5427C12.0319 15.572 12.096 15.6147 12.1499 15.6687L12.7075 16.2273L14.23 14.7019C14.3389 14.5928 14.4869 14.5312 14.6411 14.531ZM24.2612 15.4988C24.4152 15.4988 24.5635 15.5598 24.6724 15.6687C24.7812 15.7776 24.8423 15.9259 24.8423 16.0798C24.8422 16.2336 24.781 16.3812 24.6724 16.49C24.5635 16.5989 24.4152 16.6599 24.2612 16.6599H17.5464C17.3925 16.6599 17.2451 16.5988 17.1362 16.49C17.0274 16.3812 16.9654 16.2337 16.9653 16.0798C16.9653 15.9258 17.0273 15.7776 17.1362 15.6687C17.2451 15.56 17.3926 15.4988 17.5464 15.4988H24.2612ZM14.6411 10.1765C14.7952 10.1764 14.9431 10.2376 15.0522 10.3464C15.1614 10.4554 15.223 10.6034 15.2231 10.7576C15.2233 10.9117 15.1621 11.0596 15.0532 11.1687L13.1187 13.1042C13.0647 13.1584 12.9998 13.2009 12.9292 13.2302C12.8587 13.2595 12.7829 13.2751 12.7065 13.2751C12.6301 13.2751 12.5544 13.2595 12.4839 13.2302C12.4134 13.2009 12.3493 13.1583 12.2954 13.1042L11.3267 12.1355C11.2179 12.0264 11.1566 11.8784 11.1567 11.7244C11.1569 11.5702 11.2185 11.4222 11.3276 11.3132C11.4367 11.2044 11.5847 11.1433 11.7388 11.1433C11.893 11.1434 12.041 11.2051 12.1499 11.3142L12.7075 11.8728L14.23 10.3474C14.3389 10.2383 14.4869 10.1767 14.6411 10.1765ZM24.2612 11.1443C24.4152 11.1443 24.5635 11.2053 24.6724 11.3142C24.781 11.423 24.8422 11.5706 24.8423 11.7244C24.8423 11.8783 24.7811 12.0266 24.6724 12.1355C24.5635 12.2444 24.4152 12.3054 24.2612 12.3054H17.5464C17.3925 12.3054 17.2451 12.2442 17.1362 12.1355C17.0273 12.0266 16.9653 11.8784 16.9653 11.7244C16.9654 11.5705 17.0274 11.423 17.1362 11.3142C17.2451 11.2055 17.3925 11.1443 17.5464 11.1443H24.2612ZM22.936 6.3064H26.7573L22.936 2.48413V6.3064Z" fill="#675BFF"/>
</svg>
