<svg width="34" height="35" viewBox="0 0 34 35" fill="none" xmlns="http://www.w3.org/2000/svg">
<path d="M3.18799 10.0625C3.48139 10.0625 3.71924 9.82465 3.71924 9.53125C3.71924 9.23785 3.48139 9 3.18799 9C2.89459 9 2.65674 9.23785 2.65674 9.53125C2.65674 9.82465 2.89459 10.0625 3.18799 10.0625Z" fill="#0356FF"/>
<path d="M5.3125 10.0625C5.6059 10.0625 5.84375 9.82465 5.84375 9.53125C5.84375 9.23785 5.6059 9 5.3125 9C5.0191 9 4.78125 9.23785 4.78125 9.53125C4.78125 9.82465 5.0191 10.0625 5.3125 10.0625Z" fill="#0356FF"/>
<path d="M7.4375 10.0625C7.7309 10.0625 7.96875 9.82465 7.96875 9.53125C7.96875 9.23785 7.7309 9 7.4375 9C7.1441 9 6.90625 9.23785 6.90625 9.53125C6.90625 9.82465 7.1441 10.0625 7.4375 10.0625Z" fill="#0356FF"/>
<path d="M13.2812 10.0625H23.375C23.5159 10.0625 23.651 10.0065 23.7507 9.9069C23.8503 9.80727 23.9062 9.67215 23.9062 9.53125C23.9062 9.39035 23.8503 9.25523 23.7507 9.1556C23.651 9.05597 23.5159 9 23.375 9H13.2812C13.1404 9 13.0052 9.05597 12.9056 9.1556C12.806 9.25523 12.75 9.39035 12.75 9.53125C12.75 9.67215 12.806 9.80727 12.9056 9.9069C13.0052 10.0065 13.1404 10.0625 13.2812 10.0625Z" fill="#0356FF"/>
<path d="M1.59375 12.9844H24.9688C25.3913 12.9839 25.7964 12.8158 26.0952 12.517C26.3939 12.2183 26.562 11.8132 26.5625 11.3906V7.67188C26.562 7.24934 26.3939 6.84425 26.0952 6.54547C25.7964 6.24669 25.3913 6.07862 24.9688 6.07812H1.59375C1.17121 6.07862 0.766122 6.24669 0.467342 6.54547C0.168563 6.84425 0.0004921 7.24934 0 7.67188L0 11.3906C0.0004921 11.8132 0.168563 12.2183 0.467342 12.517C0.766122 12.8158 1.17121 12.9839 1.59375 12.9844ZM1.0625 7.67188C1.06264 7.53102 1.11866 7.39598 1.21825 7.29638C1.31785 7.19678 1.4529 7.14077 1.59375 7.14062H24.9688C25.1096 7.14077 25.2446 7.19678 25.3442 7.29638C25.4438 7.39598 25.4999 7.53102 25.5 7.67188V11.3906C25.4999 11.5315 25.4438 11.6665 25.3442 11.7661C25.2446 11.8657 25.1096 11.9217 24.9688 11.9219H1.59375C1.4529 11.9217 1.31785 11.8657 1.21825 11.7661C1.11866 11.6665 1.06264 11.5315 1.0625 11.3906V7.67188Z" fill="#0356FF"/>
<path d="M3.18799 18.0312C3.48139 18.0312 3.71924 17.7934 3.71924 17.5C3.71924 17.2066 3.48139 16.9688 3.18799 16.9688C2.89459 16.9688 2.65674 17.2066 2.65674 17.5C2.65674 17.7934 2.89459 18.0312 3.18799 18.0312Z" fill="#0356FF"/>
<path d="M5.3125 18.0312C5.6059 18.0312 5.84375 17.7934 5.84375 17.5C5.84375 17.2066 5.6059 16.9688 5.3125 16.9688C5.0191 16.9688 4.78125 17.2066 4.78125 17.5C4.78125 17.7934 5.0191 18.0312 5.3125 18.0312Z" fill="#0356FF"/>
<path d="M7.4375 18.0312C7.7309 18.0312 7.96875 17.7934 7.96875 17.5C7.96875 17.2066 7.7309 16.9688 7.4375 16.9688C7.1441 16.9688 6.90625 17.2066 6.90625 17.5C6.90625 17.7934 7.1441 18.0312 7.4375 18.0312Z" fill="#0356FF"/>
<path d="M13.2812 16.9688C13.1404 16.9688 13.0052 17.0247 12.9056 17.1243C12.806 17.224 12.75 17.3591 12.75 17.5C12.75 17.6409 12.806 17.776 12.9056 17.8757C13.0052 17.9753 13.1404 18.0312 13.2812 18.0312H23.375C23.5159 18.0312 23.651 17.9753 23.7507 17.8757C23.8503 17.776 23.9062 17.6409 23.9062 17.5C23.9062 17.3591 23.8503 17.224 23.7507 17.1243C23.651 17.0247 23.5159 16.9688 23.375 16.9688H13.2812Z" fill="#0356FF"/>
<path d="M3.18799 26C3.48139 26 3.71924 25.7622 3.71924 25.4688C3.71924 25.1753 3.48139 24.9375 3.18799 24.9375C2.89459 24.9375 2.65674 25.1753 2.65674 25.4688C2.65674 25.7622 2.89459 26 3.18799 26Z" fill="#0356FF"/>
<path d="M5.3125 26C5.6059 26 5.84375 25.7622 5.84375 25.4688C5.84375 25.1753 5.6059 24.9375 5.3125 24.9375C5.0191 24.9375 4.78125 25.1753 4.78125 25.4688C4.78125 25.7622 5.0191 26 5.3125 26Z" fill="#0356FF"/>
<path d="M7.4375 26C7.7309 26 7.96875 25.7622 7.96875 25.4688C7.96875 25.1753 7.7309 24.9375 7.4375 24.9375C7.1441 24.9375 6.90625 25.1753 6.90625 25.4688C6.90625 25.7622 7.1441 26 7.4375 26Z" fill="#0356FF"/>
<path d="M28.2673 11.3677C28.7387 11.506 29.178 11.7367 29.5595 12.0463C29.9411 12.3558 30.2573 12.7382 30.4898 13.171C30.7943 13.7374 30.9281 14.3799 30.8749 15.0208C30.7716 14.9839 30.6593 14.98 30.5537 15.0096C30.448 15.0393 30.3542 15.1011 30.2852 15.1864C30.2162 15.2718 30.1755 15.3765 30.1686 15.486C30.1618 15.5955 30.1892 15.7045 30.247 15.7978L30.9737 16.9811C31.0213 17.0585 31.0878 17.1224 31.1671 17.1667C31.2463 17.211 31.3356 17.2343 31.4264 17.2343H31.428C31.5191 17.234 31.6086 17.2103 31.6879 17.1654C31.7672 17.1206 31.8336 17.0561 31.8808 16.9782L32.5951 15.7988C32.6534 15.7031 32.6798 15.5915 32.6706 15.4798C32.6614 15.3682 32.617 15.2623 32.5439 15.1774C32.4708 15.0926 32.3726 15.0331 32.2636 15.0074C32.1545 14.9818 32.0401 14.9914 31.9369 15.0349C31.9921 14.2152 31.8156 13.3964 31.4277 12.6722C31.13 12.1156 30.7246 11.6238 30.2351 11.2253C29.7457 10.8268 29.1818 10.5295 28.5765 10.3509C28.4416 10.3099 28.296 10.3241 28.1717 10.3905C28.0474 10.4568 27.9545 10.5698 27.9135 10.7047C27.8725 10.8395 27.8867 10.9851 27.9531 11.1095C28.0194 11.2338 28.1324 11.3267 28.2673 11.3677ZM1.59375 27.8593C1.4529 27.8591 1.31785 27.8031 1.21825 27.7035C1.11866 27.6039 1.06264 27.4689 1.0625 27.328V23.6093C1.06264 23.4684 1.11866 23.3334 1.21825 23.2338C1.31785 23.1342 1.4529 23.0782 1.59375 23.078H16.4688V22.0155H1.59375C1.17121 22.016 0.766122 22.1841 0.467342 22.4829C0.168563 22.7816 0.0004921 23.1867 0 23.6093L0 27.328C0.0004921 27.7506 0.168563 28.1557 0.467342 28.4544C0.766122 28.7532 1.17121 28.9213 1.59375 28.9218H16.9859C16.7489 28.6087 16.5875 28.2451 16.5144 27.8593H1.59375ZM1.59375 20.953H16.4688V20.8906C16.4686 20.5467 16.5386 20.2064 16.6746 19.8905H1.59375C1.4529 19.8904 1.31785 19.8344 1.21825 19.7348C1.11866 19.6352 1.06264 19.5001 1.0625 19.3593V15.6405C1.06264 15.4997 1.11866 15.3646 1.21825 15.265C1.31785 15.1654 1.4529 15.1094 1.59375 15.1093H24.9688C25.1096 15.1094 25.2446 15.1654 25.3442 15.265C25.4438 15.3646 25.4999 15.4997 25.5 15.6405V18.2968H26.5625V15.6405C26.562 15.218 26.3939 14.8129 26.0952 14.5141C25.7964 14.2153 25.3913 14.0473 24.9688 14.0468H1.59375C1.17121 14.0473 0.766122 14.2153 0.467342 14.5141C0.168563 14.8129 0.0004921 15.218 0 15.6405L0 19.3593C0.0004921 19.7818 0.168563 20.1869 0.467342 20.4857C0.766122 20.7845 1.17121 20.9525 1.59375 20.953Z" fill="#0356FF"/>
<path d="M32.4062 19.3594H19.125C18.7108 19.3517 18.3104 19.5086 18.0116 19.7956C17.7129 20.0827 17.5401 20.4765 17.5312 20.8907V27.3906C17.5401 27.8048 17.7129 28.1986 18.0116 28.4857C18.3104 28.7727 18.7108 28.9296 19.125 28.9219H32.4062C32.8205 28.9296 33.2209 28.7727 33.5196 28.4857C33.8184 28.1986 33.9911 27.8048 34 27.3906V20.8907C33.9911 20.4765 33.8184 20.0827 33.5196 19.7956C33.2209 19.5086 32.8205 19.3517 32.4062 19.3594ZM29.6241 24.7181L28.7598 25.3832L31.7767 27.8594H19.737L22.7638 25.3817L21.8979 24.7176L18.5972 27.4195C18.5964 27.4097 18.5972 20.8604 18.5988 20.8453L25.0022 25.7594C25.2227 25.9129 25.4843 25.9962 25.7529 25.9986C26.0216 26.001 26.2846 25.9222 26.5078 25.7727C26.5211 25.7636 32.9306 20.8318 32.9306 20.8318C32.9335 20.8514 32.934 27.4193 32.9325 27.4339L29.6241 24.7181ZM19.7925 20.4219H31.7215L25.9221 24.8852C25.8811 24.9174 25.8313 24.9364 25.7793 24.9395C25.7273 24.9427 25.6755 24.93 25.631 24.903L19.7925 20.4219ZM12.75 25.4688C12.75 25.6097 12.806 25.7448 12.9056 25.8444C13.0052 25.9441 13.1404 26 13.2812 26H16.4688V24.9375H13.2812C13.1404 24.9375 13.0052 24.9935 12.9056 25.0931C12.806 25.1928 12.75 25.3279 12.75 25.4688Z" fill="#0356FF"/>
</svg>
