<svg width="38" height="41" viewBox="0 0 38 41" fill="none" xmlns="http://www.w3.org/2000/svg">
<path d="M36.67 11.4543C36.3945 11.4543 36.1713 11.2134 36.1713 10.9162V5.38118H1.8288V10.9162C1.8288 11.2134 1.60555 11.4543 1.33005 11.4543C1.05455 11.4543 0.831299 11.2134 0.831299 10.9162V4.84306C0.831299 4.54581 1.05455 4.30493 1.33005 4.30493H36.67C36.9455 4.30493 37.1688 4.54581 37.1688 4.84306V10.9162C37.1688 11.2134 36.9455 11.4543 36.67 11.4543Z" fill="#FF59C2"/>
<path d="M36.67 36.6951H1.33005C1.05455 36.6951 0.831299 36.4542 0.831299 36.157V10.9163C0.831299 10.6191 1.05455 10.3782 1.33005 10.3782H36.67C36.9455 10.3782 37.1688 10.6191 37.1688 10.9163V36.157C37.1688 36.4542 36.9455 36.6951 36.67 36.6951ZM1.8288 35.6188H36.1713V11.4545H1.8288V35.6188ZM5.87105 8.77666H5.67155C5.2678 8.77666 4.94005 8.42304 4.94005 7.98741V7.77216C4.94005 7.33653 5.2678 6.98291 5.67155 6.98291H5.87105C6.2748 6.98291 6.60255 7.33653 6.60255 7.77216V7.98741C6.60255 8.42304 6.2748 8.77666 5.87105 8.77666ZM9.14855 8.77666H8.94905C8.5453 8.77666 8.21755 8.42304 8.21755 7.98741V7.77216C8.21755 7.33653 8.5453 6.98291 8.94905 6.98291H9.14855C9.5523 6.98291 9.88005 7.33653 9.88005 7.77216V7.98741C9.88005 8.42304 9.5523 8.77666 9.14855 8.77666ZM12.426 8.77666H12.2265C11.8228 8.77666 11.495 8.42304 11.495 7.98741V7.77216C11.495 7.33653 11.8228 6.98291 12.2265 6.98291H12.426C12.8298 6.98291 13.1575 7.33653 13.1575 7.77216V7.98741C13.1575 8.42304 12.8298 8.77666 12.426 8.77666Z" fill="#FF59C2"/>
<path d="M25.9587 34.007H12.0412C11.7657 34.007 11.5425 33.7661 11.5425 33.4689V29.8199C11.5425 29.5226 11.7657 29.2817 12.0412 29.2817H25.9587C26.2342 29.2817 26.4575 29.5226 26.4575 29.8199V33.4689C26.4575 33.7661 26.2342 34.007 25.9587 34.007ZM12.54 32.9307H25.46V30.358H12.54V32.9307Z" fill="#FF59C2"/>
<path d="M14.269 32.1927C14.5497 32.1927 14.7772 31.9472 14.7772 31.6443C14.7772 31.3415 14.5497 31.0959 14.269 31.0959C13.9883 31.0959 13.7607 31.3415 13.7607 31.6443C13.7607 31.9472 13.9883 32.1927 14.269 32.1927Z" fill="#FF59C2"/>
<path d="M16.2592 32.1927C16.5399 32.1927 16.7675 31.9472 16.7675 31.6443C16.7675 31.3415 16.5399 31.0959 16.2592 31.0959C15.9785 31.0959 15.751 31.3415 15.751 31.6443C15.751 31.9472 15.9785 32.1927 16.2592 32.1927Z" fill="#FF59C2"/>
<path d="M18.2495 32.1927C18.5302 32.1927 18.7577 31.9472 18.7577 31.6443C18.7577 31.3415 18.5302 31.0959 18.2495 31.0959C17.9688 31.0959 17.7412 31.3415 17.7412 31.6443C17.7412 31.9472 17.9688 32.1927 18.2495 32.1927Z" fill="#FF59C2"/>
<path d="M20.2397 32.1927C20.5204 32.1927 20.7479 31.9472 20.7479 31.6443C20.7479 31.3415 20.5204 31.0959 20.2397 31.0959C19.959 31.0959 19.7314 31.3415 19.7314 31.6443C19.7314 31.9472 19.959 32.1927 20.2397 32.1927Z" fill="#FF59C2"/>
<path d="M22.2324 32.1927C22.5131 32.1927 22.7406 31.9472 22.7406 31.6443C22.7406 31.3415 22.5131 31.0959 22.2324 31.0959C21.9517 31.0959 21.7241 31.3415 21.7241 31.6443C21.7241 31.9472 21.9517 32.1927 22.2324 32.1927Z" fill="#FF59C2"/>
<path d="M25.9587 28.2619H12.0412C11.7657 28.2619 11.5425 28.021 11.5425 27.7237V24.0747C11.5425 23.7775 11.7657 23.5366 12.0412 23.5366H25.9587C26.2342 23.5366 26.4575 23.7775 26.4575 24.0747V27.7237C26.4575 28.021 26.2342 28.2619 25.9587 28.2619ZM12.54 27.1856H25.46V24.6129H12.54V27.1856Z" fill="#FF59C2"/>
<path d="M24.0612 26.4373H13.9389C13.6634 26.4373 13.4402 26.1965 13.4402 25.8992C13.4402 25.602 13.6634 25.3611 13.9389 25.3611H24.0612C24.3367 25.3611 24.5599 25.602 24.5599 25.8992C24.5599 26.1965 24.3367 26.4373 24.0612 26.4373Z" fill="#FF59C2"/>
<path d="M18.9999 22.5167C16.5845 22.5167 14.6204 20.3975 14.6204 17.7914C14.6204 15.1853 16.5845 13.0662 18.9999 13.0662C21.4152 13.0662 23.3794 15.1853 23.3794 17.7914C23.3794 20.3975 21.4152 22.5167 18.9999 22.5167ZM18.9999 14.1424C17.1355 14.1424 15.6179 15.7798 15.6179 17.7914C15.6179 19.803 17.1355 21.4404 18.9999 21.4404C20.8642 21.4404 22.3819 19.803 22.3819 17.7914C22.3819 15.7798 20.8642 14.1424 18.9999 14.1424Z" fill="#FF59C2"/>
<path d="M21.6146 21.4224C21.3843 21.4224 21.1776 21.2507 21.1278 20.9996C20.9401 20.0694 20.1611 19.3929 19.2753 19.3929H18.7243C17.8384 19.3929 17.0618 20.0694 16.8718 20.9996C16.8124 21.2892 16.5464 21.4737 16.278 21.4096C16.0096 21.3455 15.8386 21.0585 15.898 20.769C16.0358 20.0848 16.392 19.4621 16.8979 19.0162C17.4109 18.5652 18.0593 18.3167 18.7243 18.3167H19.2753C19.9403 18.3167 20.5886 18.5652 21.1016 19.0162C21.6075 19.4621 21.9638 20.0848 22.1015 20.769C22.1609 21.0585 21.9899 21.3455 21.7215 21.4096C21.6835 21.4198 21.6479 21.4224 21.6146 21.4224Z" fill="#FF59C2"/>
<path d="M18.9999 19.3929C17.9003 19.3929 17.0073 18.4294 17.0073 17.243C17.0073 16.0565 17.9003 15.093 18.9999 15.093C20.0996 15.093 20.9926 16.0565 20.9926 17.243C20.9926 18.4294 20.0996 19.3929 18.9999 19.3929ZM18.9999 16.1693C18.4513 16.1693 18.0048 16.651 18.0048 17.243C18.0048 17.8349 18.4513 18.3166 18.9999 18.3166C19.5486 18.3166 19.9951 17.8349 19.9951 17.243C19.9951 16.651 19.5486 16.1693 18.9999 16.1693Z" fill="#FF59C2"/>
</svg>
