<svg width="52" height="52" viewBox="0 0 52 52" fill="none" xmlns="http://www.w3.org/2000/svg">
<path fill-rule="evenodd" clip-rule="evenodd" d="M23.7001 37.9871C23.3954 37.9871 23.1517 37.8653 22.969 37.652L20.3796 34.2402H19.3134C16.6327 34.2402 14.4698 36.403 14.4698 39.0533V42.2824H17.9426V39.8453C17.9426 38.6878 19.7399 38.6878 19.7399 39.8453V42.2824H32.2601V39.8453C32.2601 38.6878 34.0269 38.6878 34.0269 39.8453V42.2824H37.4997V39.0533C37.4997 36.403 35.3368 34.2402 32.6866 34.2402H31.6204L29.0006 37.652C28.6655 38.109 27.9649 38.109 27.5993 37.652L25.9848 35.6415L24.3702 37.652C24.2179 37.8653 23.9438 37.9871 23.7001 37.9871ZM51.1166 52H0.883421C0.396016 52 0 51.604 0 51.1166V47.065C0 46.5472 0.396016 46.1511 0.883421 46.1511H51.1166C51.604 46.1511 52 46.5472 52 47.065V51.1166C52 51.604 51.604 52 51.1166 52ZM1.76684 50.2332H50.2332V47.9484H1.76684V50.2332ZM10.0223 44.0492C9.53486 44.0492 9.13884 43.6532 9.13884 43.1658V39.0533C9.13884 33.9051 13.0076 29.5794 18.1254 28.9701C19.283 28.8483 19.4657 30.5847 18.3081 30.737C14.1043 31.2244 10.9057 34.819 10.9057 39.0533V43.1658C10.9057 43.6532 10.5097 44.0492 10.0223 44.0492ZM5.2396 18.3081C2.34564 18.3081 0 15.932 0 13.0381C0 10.1746 2.34564 7.79848 5.2396 7.79848C8.13357 7.79848 10.4792 10.1746 10.4792 13.0381C10.4792 15.932 8.13357 18.3081 5.2396 18.3081ZM5.2396 9.59578C3.32045 9.59578 1.76684 11.1494 1.76684 13.0381C1.76684 14.9572 3.32045 16.5108 5.2396 16.5108C7.15876 16.5108 8.71236 14.9572 8.71236 13.0381C8.71236 11.1494 7.15876 9.59578 5.2396 9.59578ZM46.7604 39.6321C43.8664 39.6321 41.5208 37.2865 41.5208 34.3925C41.5208 31.4985 43.8664 29.1529 46.7604 29.1529C49.6544 29.1529 52 31.4985 52 34.3925C52 37.2865 49.6544 39.6321 46.7604 39.6321ZM46.7604 30.9197C44.8412 30.9197 43.2876 32.4733 43.2876 34.3925C43.2876 36.3117 44.8412 37.8653 46.7604 37.8653C48.6796 37.8653 50.2332 36.3117 50.2332 34.3925C50.2332 32.4733 48.6796 30.9197 46.7604 30.9197ZM16.7241 8.83421C16.3585 8.83421 14.9268 8.07264 14.4394 7.82894L12.5202 8.74282C11.8805 9.04745 11.1494 8.52958 11.2408 7.82894L11.5454 5.72701L10.0832 4.20387C9.59578 3.686 9.86995 2.83304 10.5401 2.71119L12.6421 2.31517L13.6473 0.456942C13.9824 -0.152314 14.8658 -0.152314 15.2009 0.456942L16.2062 2.31517L18.3081 2.71119C19.0088 2.83304 19.283 3.686 18.7955 4.20387L17.3333 5.72701L17.6075 7.82894C17.6684 8.37727 17.2419 8.83421 16.7241 8.83421ZM12.4897 4.14294C13.5255 5.2396 13.4341 4.96544 13.2209 6.42765C14.5612 5.78793 14.2871 5.78793 15.6274 6.42765C15.4142 4.96544 15.3533 5.2396 16.3585 4.14294C14.8963 3.89924 15.14 4.05155 14.4394 2.74165C13.7387 4.05155 13.952 3.89924 12.4897 4.14294ZM23.7001 8.83421C23.1517 8.83421 22.7557 8.37727 22.8166 7.82894L23.0908 5.72701L21.6286 4.20387C21.1412 3.686 21.4153 2.83304 22.116 2.71119L24.2179 2.31517L25.2232 0.456942C25.5583 -0.152314 26.4417 -0.152314 26.7768 0.456942L27.7821 2.31517L29.884 2.71119C30.5542 2.83304 30.8284 3.686 30.3409 4.20387L28.8787 5.72701L29.1834 7.82894C29.2748 8.52958 28.5436 9.04745 27.9039 8.74282L25.9848 7.82894C25.4974 8.07264 24.0656 8.83421 23.7001 8.83421ZM24.0656 4.14294C25.0709 5.2396 25.01 4.96544 24.7967 6.42765C26.1371 5.78793 25.8629 5.78793 27.2033 6.42765C26.99 4.96544 26.8987 5.2396 27.9344 4.14294C26.4722 3.89924 26.6854 4.05155 25.9848 2.74165C25.2841 4.05155 25.5278 3.89924 24.0656 4.14294ZM39.8453 8.83421C39.4798 8.83421 38.048 8.07264 37.5606 7.82894L35.6415 8.74282C35.0018 9.04745 34.3011 8.52958 34.3925 7.82894L34.6667 5.72701L33.2045 4.20387C32.717 3.686 32.9912 2.83304 33.6919 2.71119L35.7633 2.31517L36.7686 0.456942C37.1037 -0.152314 38.0176 -0.152314 38.3527 0.456942L39.3579 2.31517L41.4294 2.71119C42.1301 2.83304 42.4042 3.686 41.9168 4.20387L40.4546 5.72701L40.7288 7.82894C40.8202 8.37727 40.3937 8.83421 39.8453 8.83421ZM37.5606 5.97071C37.8957 5.97071 38.4136 6.27534 38.7487 6.42765C38.5659 4.96544 38.4745 5.2396 39.5103 4.14294C38.048 3.89924 38.2613 4.05155 37.5606 2.74165C36.86 4.05155 37.0732 3.89924 35.611 4.14294C36.6467 5.2396 36.5554 4.96544 36.3726 6.42765C36.7077 6.27534 37.256 5.97071 37.5606 5.97071ZM44.4452 21.4458C42.1301 21.4458 40.2414 19.5571 40.2414 17.2419C40.2414 14.9268 42.1301 13.0381 44.4452 13.0381C46.7909 13.0381 48.6796 14.9268 48.6796 17.2419C48.6796 19.5571 46.7909 21.4458 44.4452 21.4458ZM44.4452 14.8049C43.1049 14.8049 42.0082 15.9016 42.0082 17.2419C42.0082 18.5823 43.1049 19.679 44.4452 19.679C45.8161 19.679 46.8822 18.5823 46.8822 17.2419C46.8822 15.9016 45.8161 14.8049 44.4452 14.8049ZM6.51904 33.7832C4.20387 33.7832 2.31517 31.8946 2.31517 29.5794C2.31517 27.2642 4.20387 25.3755 6.51904 25.3755C8.83421 25.3755 10.7229 27.2642 10.7229 29.5794C10.7229 31.8946 8.83421 33.7832 6.51904 33.7832ZM6.51904 27.1424C5.17868 27.1424 4.08202 28.239 4.08202 29.5794C4.08202 30.9197 5.17868 32.0164 6.51904 32.0164C7.8594 32.0164 8.95606 30.9197 8.95606 29.5794C8.95606 28.239 7.8594 27.1424 6.51904 27.1424ZM24.7967 34.2706L22.5729 32.0773L21.8723 33.2654L23.7001 35.6719L24.7967 34.2706ZM21.4763 30.4323V28.7569C19.8922 27.7516 19.1002 26.5636 18.3995 25.0709C17.8512 23.9133 17.0592 21.8418 17.4856 20.1359C16.6632 18.7651 16.7545 15.8407 17.4552 13.7692C19.1002 8.89514 23.5173 8.59051 27.2337 10.6011C30.0668 12.1242 34.9104 10.205 35.0018 14.1957C35.0322 16.389 36.3117 17.3029 34.5448 20.0141C35.5196 22.8166 32.9607 26.5026 32.2296 27.2947C31.7118 27.8735 31.133 28.3609 30.4933 28.7569V30.4323L31.6813 32.4429H32.6866C36.3117 32.4429 39.297 35.4282 39.297 39.0533V43.1658C39.297 43.6532 38.901 44.0492 38.3831 44.0492C30.1277 44.0492 21.8723 44.0492 13.5864 44.0492C13.099 44.0492 12.703 43.6532 12.703 43.1658V39.0533C12.703 35.4282 15.6579 32.4429 19.3134 32.4429H20.3187L21.4763 30.4323ZM23.2736 29.6098V30.28L25.9848 32.9607L28.7264 30.28V29.6098C26.9596 30.2191 25.0404 30.2191 23.2736 29.6098ZM29.4271 32.0773L27.1728 34.2706L28.2999 35.6719L30.1277 33.2654L29.4271 32.0773ZM32.8084 20.4101C31.133 18.7042 25.7106 21.0498 23.6696 19.8008C22.7252 19.222 21.7809 18.7042 21.2021 18.7042C20.7147 18.7042 20.1968 19.1306 19.2525 20.3796C18.9479 21.263 19.222 22.6948 19.9836 24.3093C20.7452 25.9238 21.5067 26.7463 22.8166 27.4774C25.4974 28.9701 28.8483 28.3913 30.9197 26.1066C31.7422 25.1927 33.57 22.0551 32.8084 20.4101ZM30.4933 18.0035C31.6813 18.0035 32.5952 18.1863 33.3263 18.6128C34.2097 17.0287 33.2654 16.5108 33.2349 14.2566C33.2045 13.6473 33.2045 13.2513 30.7674 13.099C26.1371 12.8553 27.3251 12.1547 24.4616 11.4235C19.5876 10.1441 18.3691 15.14 18.7346 18.2168C20.6233 16.1757 22.1769 16.785 24.5835 18.2777C25.2232 18.6737 29.0006 18.0035 30.4933 18.0035Z" fill="#008744"/>
</svg>
